%TF.GenerationSoftware,KiCad,Pcbnew,(7.0.0)*%
%TF.CreationDate,2026-04-23T22:23:36+02:00*%
%TF.ProjectId,wristwatch_top,77726973-7477-4617-9463-685f746f702e,rev?*%
%TF.SameCoordinates,Original*%
%TF.FileFunction,Copper,L1,Top*%
%TF.FilePolarity,Positive*%
%FSLAX46Y46*%
G04 Gerber Fmt 4.6, Leading zero omitted, Abs format (unit mm)*
G04 Created by KiCad (PCBNEW (7.0.0)) date 2026-04-23 22:23:36*
%MOMM*%
%LPD*%
G01*
G04 APERTURE LIST*
%TA.AperFunction,ComponentPad*%
%ADD10O,1.600000X1.600000*%
%TD*%
%TA.AperFunction,SMDPad,CuDef*%
%ADD11R,0.900000X0.400000*%
%TD*%
%TA.AperFunction,ViaPad*%
%ADD12C,0.800000*%
%TD*%
%TA.AperFunction,Conductor*%
%ADD13C,0.250000*%
%TD*%
G04 APERTURE END LIST*
D10*
%TO.P,,C*%
%TO.N,N/C*%
X153259999Y-105799999D03*
%TD*%
%TO.P,,3*%
%TO.N,N/C*%
X153259999Y-98179999D03*
%TD*%
%TO.P,,DP*%
%TO.N,N/C*%
X160669999Y-113274999D03*
%TD*%
%TO.P,,1*%
%TO.N,N/C*%
X160699999Y-105799999D03*
%TD*%
%TO.P,,B*%
%TO.N,N/C*%
X150719999Y-98179999D03*
%TD*%
%TO.P,,13*%
%TO.N,N/C*%
X160093399Y-91026499D03*
%TD*%
D11*
%TO.P,REF\u002A\u002A,A*%
%TO.N,N/C*%
X145719999Y-98574999D03*
X144019999Y-98574999D03*
%TO.P,REF\u002A\u002A,B*%
X145719999Y-99374999D03*
X144019999Y-99374999D03*
%TO.P,REF\u002A\u002A,D*%
X145719999Y-100974999D03*
X144019999Y-100974999D03*
%TO.P,REF\u002A\u002A,F*%
X145719999Y-100174999D03*
X144019999Y-100174999D03*
%TD*%
D10*
%TO.P,,4*%
%TO.N,N/C*%
X150559999Y-113304999D03*
%TD*%
%TO.P,,GND*%
%TO.N,N/C*%
X148852599Y-93581499D03*
%TD*%
%TO.P,,2*%
%TO.N,N/C*%
X155639999Y-113304999D03*
%TD*%
%TO.P,,B*%
%TO.N,N/C*%
X142889999Y-113274999D03*
%TD*%
%TO.P,,12*%
%TO.N,N/C*%
X165829999Y-103054999D03*
%TD*%
%TO.P,,V+*%
%TO.N,N/C*%
X148842599Y-91031499D03*
%TD*%
%TO.P,,13*%
%TO.N,N/C*%
X168369999Y-103054999D03*
%TD*%
%TO.P,,3*%
%TO.N,N/C*%
X153099999Y-113304999D03*
%TD*%
%TO.P,,D*%
%TO.N,N/C*%
X158249999Y-98179999D03*
%TD*%
%TO.P,,2*%
%TO.N,N/C*%
X155799999Y-105799999D03*
%TD*%
%TO.P,,A*%
%TO.N,N/C*%
X148179999Y-98179999D03*
%TD*%
%TO.P,,G*%
%TO.N,N/C*%
X168289999Y-113274999D03*
%TD*%
D11*
%TO.P,REF\u002A\u002A,C*%
%TO.N,N/C*%
X164599999Y-100174999D03*
X162899999Y-100174999D03*
%TO.P,REF\u002A\u002A,DP*%
X164599999Y-100974999D03*
X162899999Y-100974999D03*
%TO.P,REF\u002A\u002A,E*%
X164599999Y-99374999D03*
X162899999Y-99374999D03*
%TO.P,REF\u002A\u002A,G*%
X164599999Y-98574999D03*
X162899999Y-98574999D03*
%TD*%
D10*
%TO.P,,E*%
%TO.N,N/C*%
X165749999Y-113274999D03*
%TD*%
%TO.P,,V+*%
%TO.N,N/C*%
X168379999Y-105584999D03*
%TD*%
%TO.P,,4*%
%TO.N,N/C*%
X148179999Y-105799999D03*
%TD*%
%TO.P,,1*%
%TO.N,N/C*%
X158089999Y-113304999D03*
%TD*%
%TO.P,,VCC*%
%TO.N,N/C*%
X139909999Y-104524999D03*
%TD*%
%TO.P,,VCC*%
%TO.N,N/C*%
X140349999Y-110734999D03*
%TD*%
%TO.P,,A*%
%TO.N,N/C*%
X140349999Y-113274999D03*
%TD*%
%TO.P,,10*%
%TO.N,N/C*%
X148852599Y-96121499D03*
%TD*%
%TO.P,,D*%
%TO.N,N/C*%
X147969999Y-113274999D03*
%TD*%
%TO.P,,11*%
%TO.N,N/C*%
X160103399Y-96116499D03*
%TD*%
%TO.P,,VCC*%
%TO.N,N/C*%
X139909999Y-99444999D03*
%TD*%
%TO.P,,VCC*%
%TO.N,N/C*%
X142889999Y-110734999D03*
%TD*%
%TO.P,,12*%
%TO.N,N/C*%
X160093399Y-93566499D03*
%TD*%
%TO.P,,GND*%
%TO.N,N/C*%
X165829999Y-105594999D03*
%TD*%
%TO.P,,G*%
%TO.N,N/C*%
X160699999Y-98179999D03*
%TD*%
%TO.P,,C*%
%TO.N,N/C*%
X163209999Y-113274999D03*
%TD*%
%TO.P,,E*%
%TO.N,N/C*%
X150719999Y-105799999D03*
%TD*%
%TO.P,,DP*%
%TO.N,N/C*%
X158249999Y-105799999D03*
%TD*%
%TO.P,,F*%
%TO.N,N/C*%
X155799999Y-98179999D03*
%TD*%
%TO.P,,11*%
%TO.N,N/C*%
X163289999Y-103054999D03*
%TD*%
%TO.P,,10*%
%TO.N,N/C*%
X163289999Y-105594999D03*
%TD*%
%TO.P,,F*%
%TO.N,N/C*%
X145429999Y-113274999D03*
%TD*%
D12*
%TO.N,*%
X169710000Y-99285000D03*
X167540000Y-92275000D03*
X166010000Y-100175000D03*
%TD*%
D13*
%TO.N,*%
X139920000Y-110305000D02*
X140350000Y-110735000D01*
X169710000Y-99285000D02*
X169710000Y-94445000D01*
X139910000Y-104525000D02*
X139920000Y-104535000D01*
X148180000Y-105820000D02*
X150638000Y-108278000D01*
X150638000Y-108278000D02*
X150638000Y-113227000D01*
X150640000Y-113225000D02*
X150560000Y-113305000D01*
X148180000Y-105800000D02*
X148180000Y-105820000D01*
X139920000Y-104535000D02*
X139920000Y-110305000D01*
X169710000Y-94445000D02*
X167540000Y-92275000D01*
X160700000Y-98180000D02*
X162505000Y-98180000D01*
X147955000Y-113260000D02*
X147970000Y-113275000D01*
X158250000Y-105800000D02*
X158250000Y-104925000D01*
X156400000Y-106400000D02*
X156400000Y-112545000D01*
X164588000Y-100987000D02*
X164600000Y-100975000D01*
X144020000Y-104090000D02*
X147955000Y-108025000D01*
X155620000Y-113285000D02*
X155640000Y-113305000D01*
X169680000Y-103881000D02*
X169680000Y-100795000D01*
X147992000Y-113253000D02*
X147970000Y-113275000D01*
X155455000Y-100975000D02*
X158250000Y-98180000D01*
X153805000Y-100175000D02*
X145720000Y-100175000D01*
X167138000Y-99863000D02*
X167138000Y-111887000D01*
X145720000Y-100975000D02*
X155455000Y-100975000D01*
X167138000Y-111887000D02*
X165750000Y-113275000D01*
X150725000Y-105800000D02*
X154170000Y-102355000D01*
X155800000Y-105800000D02*
X156400000Y-106400000D01*
X158192000Y-113203000D02*
X158090000Y-113305000D01*
X144020000Y-100975000D02*
X144020000Y-104090000D01*
X162505000Y-98180000D02*
X162900000Y-98575000D01*
X160670000Y-113275000D02*
X160670000Y-112307000D01*
X147955000Y-108025000D02*
X147955000Y-113260000D01*
X162900000Y-99375000D02*
X162700000Y-99575000D01*
X158885000Y-100175000D02*
X153260000Y-105800000D01*
X158270000Y-108230000D02*
X158270000Y-113125000D01*
X158270000Y-113125000D02*
X158090000Y-113305000D01*
X167460000Y-98575000D02*
X164600000Y-98575000D01*
X168290000Y-113275000D02*
X169678000Y-111887000D01*
X142990000Y-100735000D02*
X142990000Y-104475000D01*
X150638000Y-113227000D02*
X150560000Y-113305000D01*
X164588000Y-108389000D02*
X164588000Y-100987000D01*
X162700000Y-99575000D02*
X158180000Y-99575000D01*
X169680000Y-100795000D02*
X167460000Y-98575000D01*
X155800000Y-98180000D02*
X153805000Y-100175000D01*
X162900000Y-100175000D02*
X158885000Y-100175000D01*
X160700000Y-105800000D02*
X158270000Y-108230000D01*
X162200000Y-100975000D02*
X162900000Y-100975000D01*
X164600000Y-99375000D02*
X166650000Y-99375000D01*
X154170000Y-102355000D02*
X155400000Y-102355000D01*
X150720000Y-105800000D02*
X150725000Y-105800000D01*
X166650000Y-99375000D02*
X167138000Y-99863000D01*
X145430000Y-106915000D02*
X145430000Y-113275000D01*
X144020000Y-100175000D02*
X143550000Y-100175000D01*
X144020000Y-99375000D02*
X143480000Y-99375000D01*
X168292000Y-113275000D02*
X168290000Y-113275000D01*
X169678000Y-111887000D02*
X169678000Y-103883000D01*
X166010000Y-100175000D02*
X164600000Y-100175000D01*
X155722000Y-113223000D02*
X155640000Y-113305000D01*
X160670000Y-112307000D02*
X164588000Y-108389000D01*
X143550000Y-100175000D02*
X142990000Y-100735000D01*
X142990000Y-104475000D02*
X145430000Y-106915000D01*
X158250000Y-104925000D02*
X162200000Y-100975000D01*
X155400000Y-102355000D02*
X158180000Y-99575000D01*
X156400000Y-112545000D02*
X155640000Y-113305000D01*
X169678000Y-103883000D02*
X169680000Y-103881000D01*
X148180000Y-98180000D02*
X147785000Y-98575000D01*
X147785000Y-98575000D02*
X145720000Y-98575000D01*
X141620000Y-100205000D02*
X141620000Y-112005000D01*
X149525000Y-99375000D02*
X150720000Y-98180000D01*
X142260000Y-105805000D02*
X144385000Y-107930000D01*
X144020000Y-98575000D02*
X143250000Y-98575000D01*
X141620000Y-112005000D02*
X140350000Y-113275000D01*
X143250000Y-98575000D02*
X141620000Y-100205000D01*
X145720000Y-99375000D02*
X149525000Y-99375000D01*
X144385000Y-111780000D02*
X142890000Y-113275000D01*
X144385000Y-107930000D02*
X144385000Y-111780000D01*
X143480000Y-99375000D02*
X142260000Y-100595000D01*
X142260000Y-100595000D02*
X142260000Y-105805000D01*
%TD*%
M02*
