%TF.GenerationSoftware,KiCad,Pcbnew,(7.0.0)*%
%TF.CreationDate,2026-04-23T22:23:36+02:00*%
%TF.ProjectId,wristwatch_top,77726973-7477-4617-9463-685f746f702e,rev?*%
%TF.SameCoordinates,Original*%
%TF.FileFunction,Copper,L2,Bot*%
%TF.FilePolarity,Positive*%
%FSLAX46Y46*%
G04 Gerber Fmt 4.6, Leading zero omitted, Abs format (unit mm)*
G04 Created by KiCad (PCBNEW (7.0.0)) date 2026-04-23 22:23:36*
%MOMM*%
%LPD*%
G01*
G04 APERTURE LIST*
%TA.AperFunction,ComponentPad*%
%ADD10O,1.600000X1.600000*%
%TD*%
%TA.AperFunction,ViaPad*%
%ADD11C,0.800000*%
%TD*%
%TA.AperFunction,Conductor*%
%ADD12C,0.250000*%
%TD*%
G04 APERTURE END LIST*
D10*
%TO.P,,C*%
%TO.N,N/C*%
X153259999Y-105799999D03*
%TD*%
%TO.P,,3*%
%TO.N,N/C*%
X153259999Y-98179999D03*
%TD*%
%TO.P,,DP*%
%TO.N,N/C*%
X160669999Y-113274999D03*
%TD*%
%TO.P,,1*%
%TO.N,N/C*%
X160699999Y-105799999D03*
%TD*%
%TO.P,,B*%
%TO.N,N/C*%
X150719999Y-98179999D03*
%TD*%
%TO.P,,13*%
%TO.N,N/C*%
X160093399Y-91026499D03*
%TD*%
%TO.P,,4*%
%TO.N,N/C*%
X150559999Y-113304999D03*
%TD*%
%TO.P,,GND*%
%TO.N,N/C*%
X148852599Y-93581499D03*
%TD*%
%TO.P,,2*%
%TO.N,N/C*%
X155639999Y-113304999D03*
%TD*%
%TO.P,,B*%
%TO.N,N/C*%
X142889999Y-113274999D03*
%TD*%
%TO.P,,12*%
%TO.N,N/C*%
X165829999Y-103054999D03*
%TD*%
%TO.P,,V+*%
%TO.N,N/C*%
X148842599Y-91031499D03*
%TD*%
%TO.P,,13*%
%TO.N,N/C*%
X168369999Y-103054999D03*
%TD*%
%TO.P,,3*%
%TO.N,N/C*%
X153099999Y-113304999D03*
%TD*%
%TO.P,,D*%
%TO.N,N/C*%
X158249999Y-98179999D03*
%TD*%
%TO.P,,2*%
%TO.N,N/C*%
X155799999Y-105799999D03*
%TD*%
%TO.P,,A*%
%TO.N,N/C*%
X148179999Y-98179999D03*
%TD*%
%TO.P,,G*%
%TO.N,N/C*%
X168289999Y-113274999D03*
%TD*%
%TO.P,,E*%
%TO.N,N/C*%
X165749999Y-113274999D03*
%TD*%
%TO.P,,V+*%
%TO.N,N/C*%
X168379999Y-105584999D03*
%TD*%
%TO.P,,4*%
%TO.N,N/C*%
X148179999Y-105799999D03*
%TD*%
%TO.P,,1*%
%TO.N,N/C*%
X158089999Y-113304999D03*
%TD*%
%TO.P,,VCC*%
%TO.N,N/C*%
X139909999Y-104524999D03*
%TD*%
%TO.P,,VCC*%
%TO.N,N/C*%
X140349999Y-110734999D03*
%TD*%
%TO.P,,A*%
%TO.N,N/C*%
X140349999Y-113274999D03*
%TD*%
%TO.P,,10*%
%TO.N,N/C*%
X148852599Y-96121499D03*
%TD*%
%TO.P,,D*%
%TO.N,N/C*%
X147969999Y-113274999D03*
%TD*%
%TO.P,,11*%
%TO.N,N/C*%
X160103399Y-96116499D03*
%TD*%
%TO.P,,VCC*%
%TO.N,N/C*%
X139909999Y-99444999D03*
%TD*%
%TO.P,,VCC*%
%TO.N,N/C*%
X142889999Y-110734999D03*
%TD*%
%TO.P,,12*%
%TO.N,N/C*%
X160093399Y-93566499D03*
%TD*%
%TO.P,,GND*%
%TO.N,N/C*%
X165829999Y-105594999D03*
%TD*%
%TO.P,,G*%
%TO.N,N/C*%
X160699999Y-98179999D03*
%TD*%
%TO.P,,C*%
%TO.N,N/C*%
X163209999Y-113274999D03*
%TD*%
%TO.P,,E*%
%TO.N,N/C*%
X150719999Y-105799999D03*
%TD*%
%TO.P,,DP*%
%TO.N,N/C*%
X158249999Y-105799999D03*
%TD*%
%TO.P,,F*%
%TO.N,N/C*%
X155799999Y-98179999D03*
%TD*%
%TO.P,,11*%
%TO.N,N/C*%
X163289999Y-103054999D03*
%TD*%
%TO.P,,10*%
%TO.N,N/C*%
X163289999Y-105594999D03*
%TD*%
%TO.P,,F*%
%TO.N,N/C*%
X145429999Y-113274999D03*
%TD*%
D11*
%TO.N,*%
X169710000Y-99285000D03*
X167540000Y-92275000D03*
X166010000Y-100175000D03*
%TD*%
D12*
%TO.N,*%
X159480000Y-97245000D02*
X159480000Y-99245000D01*
X167500000Y-92315000D02*
X167540000Y-92275000D01*
X160103400Y-96116500D02*
X160103400Y-96621600D01*
X165175000Y-102400000D02*
X165830000Y-103055000D01*
X157020000Y-97095000D02*
X157020000Y-99325000D01*
X160106900Y-93580000D02*
X161075000Y-93580000D01*
X163230000Y-105595000D02*
X163290000Y-105595000D01*
X156046500Y-96121500D02*
X157020000Y-97095000D01*
X161075000Y-93580000D02*
X165175000Y-97680000D01*
X169710000Y-99285000D02*
X169710000Y-104255000D01*
X150126100Y-92315000D02*
X167500000Y-92315000D01*
X160093400Y-91026500D02*
X160106900Y-91040000D01*
X159480000Y-99245000D02*
X163290000Y-103055000D01*
X160106900Y-91040000D02*
X167955000Y-91040000D01*
X157020000Y-99325000D02*
X163290000Y-105595000D01*
X169710000Y-104255000D02*
X168380000Y-105585000D01*
X165175000Y-97680000D02*
X165175000Y-102400000D01*
X160103400Y-96621600D02*
X159480000Y-97245000D01*
X161205000Y-94825000D02*
X150096100Y-94825000D01*
X148842600Y-91031500D02*
X150126100Y-92315000D01*
X142890000Y-104235000D02*
X142890000Y-110735000D01*
X148852600Y-96121500D02*
X156046500Y-96121500D01*
X164585000Y-98205000D02*
X161205000Y-94825000D01*
X160093400Y-93566500D02*
X160106900Y-93580000D01*
X165830000Y-105595000D02*
X164585000Y-104350000D01*
X139910000Y-99445000D02*
X139910000Y-101255000D01*
X139910000Y-101255000D02*
X142890000Y-104235000D01*
X167955000Y-91040000D02*
X168430000Y-91515000D01*
X168430000Y-102995000D02*
X168370000Y-103055000D01*
X168430000Y-91515000D02*
X168430000Y-102995000D01*
X164585000Y-104350000D02*
X164585000Y-98205000D01*
X150096100Y-94825000D02*
X148852600Y-93581500D01*
X154540000Y-111865000D02*
X153100000Y-113305000D01*
X153135000Y-98180000D02*
X154540000Y-99585000D01*
X166470000Y-100175000D02*
X167138000Y-100843000D01*
X167138000Y-100843000D02*
X167138000Y-108369000D01*
X153260000Y-98180000D02*
X153135000Y-98180000D01*
X163210000Y-113215000D02*
X163210000Y-113275000D01*
X154540000Y-99585000D02*
X154540000Y-111865000D01*
X163210000Y-112297000D02*
X163210000Y-113275000D01*
X167138000Y-108369000D02*
X163210000Y-112297000D01*
X166010000Y-100175000D02*
X166470000Y-100175000D01*
%TD*%
M02*
