%TF.GenerationSoftware,KiCad,Pcbnew,(7.0.0)*%
%TF.CreationDate,2026-04-23T22:23:33+02:00*%
%TF.ProjectId,wristwatch_top,77726973-7477-4617-9463-685f746f702e,rev?*%
%TF.SameCoordinates,Original*%
%TF.FileFunction,Drillmap*%
%TF.FilePolarity,Positive*%
%FSLAX45Y45*%
G04 Gerber Fmt 4.5, Leading zero omitted, Abs format (unit mm)*
G04 Created by KiCad (PCBNEW (7.0.0)) date 2026-04-23 22:23:33*
%MOMM*%
%LPD*%
G01*
G04 APERTURE LIST*
%ADD10C,0.100000*%
%ADD11C,0.200000*%
G04 APERTURE END LIST*
D10*
X13865000Y-8973500D02*
X17029000Y-8973500D01*
X17029000Y-8973500D02*
X17029000Y-11442500D01*
X17029000Y-11442500D02*
X13865000Y-11442500D01*
X13865000Y-11442500D02*
X13865000Y-8973500D01*
D11*
X14107619Y-11740976D02*
X14107619Y-11540976D01*
X14107619Y-11540976D02*
X14155238Y-11540976D01*
X14155238Y-11540976D02*
X14183809Y-11550500D01*
X14183809Y-11550500D02*
X14202857Y-11569548D01*
X14202857Y-11569548D02*
X14212381Y-11588595D01*
X14212381Y-11588595D02*
X14221905Y-11626690D01*
X14221905Y-11626690D02*
X14221905Y-11655262D01*
X14221905Y-11655262D02*
X14212381Y-11693357D01*
X14212381Y-11693357D02*
X14202857Y-11712405D01*
X14202857Y-11712405D02*
X14183809Y-11731452D01*
X14183809Y-11731452D02*
X14155238Y-11740976D01*
X14155238Y-11740976D02*
X14107619Y-11740976D01*
X14307619Y-11740976D02*
X14307619Y-11607643D01*
X14307619Y-11645738D02*
X14317143Y-11626690D01*
X14317143Y-11626690D02*
X14326667Y-11617167D01*
X14326667Y-11617167D02*
X14345714Y-11607643D01*
X14345714Y-11607643D02*
X14364762Y-11607643D01*
X14431428Y-11740976D02*
X14431428Y-11607643D01*
X14431428Y-11540976D02*
X14421905Y-11550500D01*
X14421905Y-11550500D02*
X14431428Y-11560024D01*
X14431428Y-11560024D02*
X14440952Y-11550500D01*
X14440952Y-11550500D02*
X14431428Y-11540976D01*
X14431428Y-11540976D02*
X14431428Y-11560024D01*
X14555238Y-11740976D02*
X14536190Y-11731452D01*
X14536190Y-11731452D02*
X14526667Y-11712405D01*
X14526667Y-11712405D02*
X14526667Y-11540976D01*
X14660000Y-11740976D02*
X14640952Y-11731452D01*
X14640952Y-11731452D02*
X14631428Y-11712405D01*
X14631428Y-11712405D02*
X14631428Y-11540976D01*
X14856190Y-11740976D02*
X14856190Y-11540976D01*
X14856190Y-11540976D02*
X14922857Y-11683833D01*
X14922857Y-11683833D02*
X14989524Y-11540976D01*
X14989524Y-11540976D02*
X14989524Y-11740976D01*
X15170476Y-11740976D02*
X15170476Y-11636214D01*
X15170476Y-11636214D02*
X15160952Y-11617167D01*
X15160952Y-11617167D02*
X15141905Y-11607643D01*
X15141905Y-11607643D02*
X15103809Y-11607643D01*
X15103809Y-11607643D02*
X15084762Y-11617167D01*
X15170476Y-11731452D02*
X15151428Y-11740976D01*
X15151428Y-11740976D02*
X15103809Y-11740976D01*
X15103809Y-11740976D02*
X15084762Y-11731452D01*
X15084762Y-11731452D02*
X15075238Y-11712405D01*
X15075238Y-11712405D02*
X15075238Y-11693357D01*
X15075238Y-11693357D02*
X15084762Y-11674309D01*
X15084762Y-11674309D02*
X15103809Y-11664786D01*
X15103809Y-11664786D02*
X15151428Y-11664786D01*
X15151428Y-11664786D02*
X15170476Y-11655262D01*
X15265714Y-11607643D02*
X15265714Y-11807643D01*
X15265714Y-11617167D02*
X15284762Y-11607643D01*
X15284762Y-11607643D02*
X15322857Y-11607643D01*
X15322857Y-11607643D02*
X15341905Y-11617167D01*
X15341905Y-11617167D02*
X15351428Y-11626690D01*
X15351428Y-11626690D02*
X15360952Y-11645738D01*
X15360952Y-11645738D02*
X15360952Y-11702881D01*
X15360952Y-11702881D02*
X15351428Y-11721928D01*
X15351428Y-11721928D02*
X15341905Y-11731452D01*
X15341905Y-11731452D02*
X15322857Y-11740976D01*
X15322857Y-11740976D02*
X15284762Y-11740976D01*
X15284762Y-11740976D02*
X15265714Y-11731452D01*
X15446667Y-11721928D02*
X15456190Y-11731452D01*
X15456190Y-11731452D02*
X15446667Y-11740976D01*
X15446667Y-11740976D02*
X15437143Y-11731452D01*
X15437143Y-11731452D02*
X15446667Y-11721928D01*
X15446667Y-11721928D02*
X15446667Y-11740976D01*
X15446667Y-11617167D02*
X15456190Y-11626690D01*
X15456190Y-11626690D02*
X15446667Y-11636214D01*
X15446667Y-11636214D02*
X15437143Y-11626690D01*
X15437143Y-11626690D02*
X15446667Y-11617167D01*
X15446667Y-11617167D02*
X15446667Y-11636214D01*
M02*
