%TF.GenerationSoftware,KiCad,Pcbnew,(7.0.0)*%
%TF.CreationDate,2026-04-23T22:23:36+02:00*%
%TF.ProjectId,wristwatch_top,77726973-7477-4617-9463-685f746f702e,rev?*%
%TF.SameCoordinates,Original*%
%TF.FileFunction,Soldermask,Bot*%
%TF.FilePolarity,Negative*%
%FSLAX46Y46*%
G04 Gerber Fmt 4.6, Leading zero omitted, Abs format (unit mm)*
G04 Created by KiCad (PCBNEW (7.0.0)) date 2026-04-23 22:23:36*
%MOMM*%
%LPD*%
G01*
G04 APERTURE LIST*
%ADD10O,1.600000X1.600000*%
G04 APERTURE END LIST*
D10*
%TO.C,*%
X153259999Y-105799999D03*
%TD*%
%TO.C,*%
X153259999Y-98179999D03*
%TD*%
%TO.C,*%
X160669999Y-113274999D03*
%TD*%
%TO.C,*%
X160699999Y-105799999D03*
%TD*%
%TO.C,*%
X150719999Y-98179999D03*
%TD*%
%TO.C,*%
X160093399Y-91026499D03*
%TD*%
%TO.C,*%
X150559999Y-113304999D03*
%TD*%
%TO.C,*%
X148852599Y-93581499D03*
%TD*%
%TO.C,*%
X155639999Y-113304999D03*
%TD*%
%TO.C,*%
X142889999Y-113274999D03*
%TD*%
%TO.C,*%
X165829999Y-103054999D03*
%TD*%
%TO.C,*%
X148842599Y-91031499D03*
%TD*%
%TO.C,*%
X168369999Y-103054999D03*
%TD*%
%TO.C,*%
X153099999Y-113304999D03*
%TD*%
%TO.C,*%
X158249999Y-98179999D03*
%TD*%
%TO.C,*%
X155799999Y-105799999D03*
%TD*%
%TO.C,*%
X148179999Y-98179999D03*
%TD*%
%TO.C,*%
X168289999Y-113274999D03*
%TD*%
%TO.C,*%
X165749999Y-113274999D03*
%TD*%
%TO.C,*%
X168379999Y-105584999D03*
%TD*%
%TO.C,*%
X148179999Y-105799999D03*
%TD*%
%TO.C,*%
X158089999Y-113304999D03*
%TD*%
%TO.C,*%
X139909999Y-104524999D03*
%TD*%
%TO.C,*%
X140349999Y-110734999D03*
%TD*%
%TO.C,*%
X140349999Y-113274999D03*
%TD*%
%TO.C,*%
X148852599Y-96121499D03*
%TD*%
%TO.C,*%
X147969999Y-113274999D03*
%TD*%
%TO.C,*%
X160103399Y-96116499D03*
%TD*%
%TO.C,*%
X139909999Y-99444999D03*
%TD*%
%TO.C,*%
X142889999Y-110734999D03*
%TD*%
%TO.C,*%
X160093399Y-93566499D03*
%TD*%
%TO.C,*%
X165829999Y-105594999D03*
%TD*%
%TO.C,*%
X160699999Y-98179999D03*
%TD*%
%TO.C,*%
X163209999Y-113274999D03*
%TD*%
%TO.C,*%
X150719999Y-105799999D03*
%TD*%
%TO.C,*%
X158249999Y-105799999D03*
%TD*%
%TO.C,*%
X155799999Y-98179999D03*
%TD*%
%TO.C,*%
X163289999Y-103054999D03*
%TD*%
%TO.C,*%
X163289999Y-105594999D03*
%TD*%
%TO.C,*%
X145429999Y-113274999D03*
%TD*%
M02*
