M48
; DRILL file {KiCad (7.0.0)} date Thu Apr 23 22:23:34 2026
; FORMAT={-:-/ absolute / inch / decimal}
; #@! TF.CreationDate,2026-04-23T22:23:34+02:00
; #@! TF.GenerationSoftware,Kicad,Pcbnew,(7.0.0)
; #@! TF.FileFunction,Plated,1,2,PTH
FMAT,2
INCH
; #@! TA.AperFunction,Plated,PTH,ViaDrill
T1C0.0157
; #@! TA.AperFunction,Plated,PTH,ComponentDrill
T2C0.0394
%
G90
G05
T1
X6.5358Y-3.9439
X6.5961Y-3.6329
X6.6815Y-3.9089
T2
X5.5083Y-3.9152
X5.5083Y-4.1152
X5.5256Y-4.3596
X5.5256Y-4.4596
X5.6256Y-4.3596
X5.6256Y-4.4596
X5.7256Y-4.4596
X5.8256Y-4.4596
X5.8339Y-3.8654
X5.8339Y-4.1654
X5.8599Y-3.5839
X5.8603Y-3.6843
X5.8603Y-3.7843
X5.9276Y-4.4608
X5.9339Y-3.8654
X5.9339Y-4.1654
X6.0276Y-4.4608
X6.0339Y-3.8654
X6.0339Y-4.1654
X6.1276Y-4.4608
X6.1339Y-3.8654
X6.1339Y-4.1654
X6.224Y-4.4608
X6.2303Y-3.8654
X6.2303Y-4.1654
X6.3029Y-3.5837
X6.3029Y-3.6837
X6.3033Y-3.7841
X6.3256Y-4.4596
X6.3268Y-3.8654
X6.3268Y-4.1654
X6.4256Y-4.4596
X6.4287Y-4.0573
X6.4287Y-4.1573
X6.5256Y-4.4596
X6.5287Y-4.0573
X6.5287Y-4.1573
X6.6256Y-4.4596
X6.6287Y-4.0573
X6.6291Y-4.1569
T0
M30
