%TF.GenerationSoftware,KiCad,Pcbnew,(7.0.0)*%
%TF.CreationDate,2026-04-23T22:25:35+02:00*%
%TF.ProjectId,wristwatch_bottom,77726973-7477-4617-9463-685f626f7474,rev?*%
%TF.SameCoordinates,Original*%
%TF.FileFunction,Soldermask,Top*%
%TF.FilePolarity,Negative*%
%FSLAX46Y46*%
G04 Gerber Fmt 4.6, Leading zero omitted, Abs format (unit mm)*
G04 Created by KiCad (PCBNEW (7.0.0)) date 2026-04-23 22:25:35*
%MOMM*%
%LPD*%
G01*
G04 APERTURE LIST*
G04 Aperture macros list*
%AMRoundRect*
0 Rectangle with rounded corners*
0 $1 Rounding radius*
0 $2 $3 $4 $5 $6 $7 $8 $9 X,Y pos of 4 corners*
0 Add a 4 corners polygon primitive as box body*
4,1,4,$2,$3,$4,$5,$6,$7,$8,$9,$2,$3,0*
0 Add four circle primitives for the rounded corners*
1,1,$1+$1,$2,$3*
1,1,$1+$1,$4,$5*
1,1,$1+$1,$6,$7*
1,1,$1+$1,$8,$9*
0 Add four rect primitives between the rounded corners*
20,1,$1+$1,$2,$3,$4,$5,0*
20,1,$1+$1,$4,$5,$6,$7,0*
20,1,$1+$1,$6,$7,$8,$9,0*
20,1,$1+$1,$8,$9,$2,$3,0*%
G04 Aperture macros list end*
%ADD10O,1.600000X1.600000*%
%ADD11RoundRect,0.250000X0.450000X-0.350000X0.450000X0.350000X-0.450000X0.350000X-0.450000X-0.350000X0*%
%ADD12RoundRect,0.150000X-0.875000X-0.150000X0.875000X-0.150000X0.875000X0.150000X-0.875000X0.150000X0*%
G04 APERTURE END LIST*
D10*
%TO.C,*%
X165699999Y-102439999D03*
%TD*%
%TO.C,*%
X156169999Y-107549999D03*
%TD*%
%TO.C,*%
X161249999Y-107549999D03*
%TD*%
%TO.C,*%
X168819999Y-107519999D03*
%TD*%
D11*
%TO.C,REF\u002A\u002A*%
X160690000Y-94150000D03*
X160690000Y-92150000D03*
%TD*%
%TO.C,REF\u002A\u002A*%
X169590000Y-94620000D03*
X169590000Y-92620000D03*
%TD*%
D10*
%TO.C,*%
X158709999Y-107549999D03*
%TD*%
%TO.C,*%
X166279999Y-107519999D03*
%TD*%
%TO.C,*%
X153579999Y-107519999D03*
%TD*%
%TO.C,*%
X173809999Y-102429999D03*
%TD*%
%TO.C,*%
X168899999Y-97299999D03*
%TD*%
%TO.C,*%
X145959999Y-107519999D03*
%TD*%
%TO.C,*%
X171439999Y-97299999D03*
%TD*%
D11*
%TO.C,REF\u002A\u002A*%
X158230000Y-94150000D03*
X158230000Y-92150000D03*
%TD*%
D10*
%TO.C,*%
X148499999Y-107519999D03*
%TD*%
%TO.C,*%
X173989999Y-99829999D03*
%TD*%
%TO.C,*%
X165699999Y-104979999D03*
%TD*%
%TO.C,*%
X163699999Y-107549999D03*
%TD*%
%TO.C,*%
X171359999Y-107519999D03*
%TD*%
%TO.C,*%
X173979999Y-97299999D03*
%TD*%
%TO.C,*%
X145959999Y-104979999D03*
%TD*%
%TO.C,*%
X173809999Y-104969999D03*
%TD*%
%TO.C,*%
X168899999Y-99839999D03*
%TD*%
%TO.C,*%
X148499999Y-104979999D03*
%TD*%
D12*
%TO.C,REF\u002A\u002A*%
X155100000Y-96655000D03*
X145800000Y-92845000D03*
X145800000Y-95385000D03*
X145800000Y-96655000D03*
X145800000Y-97925000D03*
X145800000Y-99195000D03*
X145800000Y-100465000D03*
X145800000Y-101735000D03*
X155100000Y-95385000D03*
X155100000Y-97925000D03*
X155100000Y-99195000D03*
X155100000Y-100465000D03*
X155100000Y-101735000D03*
X155100000Y-92845000D03*
X155100000Y-94115000D03*
X145800000Y-94115000D03*
%TD*%
D10*
%TO.C,*%
X171439999Y-99839999D03*
%TD*%
%TO.C,*%
X151039999Y-107519999D03*
%TD*%
%TO.C,*%
X173899999Y-107519999D03*
%TD*%
M02*
