%TF.GenerationSoftware,KiCad,Pcbnew,(7.0.0)*%
%TF.CreationDate,2026-04-23T22:25:33+02:00*%
%TF.ProjectId,wristwatch_bottom,77726973-7477-4617-9463-685f626f7474,rev?*%
%TF.SameCoordinates,Original*%
%TF.FileFunction,Drillmap*%
%TF.FilePolarity,Positive*%
%FSLAX45Y45*%
G04 Gerber Fmt 4.5, Leading zero omitted, Abs format (unit mm)*
G04 Created by KiCad (PCBNEW (7.0.0)) date 2026-04-23 22:25:33*
%MOMM*%
%LPD*%
G01*
G04 APERTURE LIST*
%ADD10C,0.100000*%
%ADD11C,0.200000*%
%ADD12C,0.040000*%
G04 APERTURE END LIST*
D10*
X14839000Y-7721000D02*
X14426000Y-8398000D01*
X14829000Y-11544000D02*
X14426000Y-10867000D01*
X17177000Y-11544000D02*
X17590000Y-10867000D01*
X14426000Y-8398000D02*
X14426000Y-10867000D01*
X17187000Y-7721000D02*
X17590000Y-8398000D01*
X14829000Y-11544000D02*
X17177000Y-11544000D01*
X14886500Y-7958000D02*
X17135500Y-7958000D01*
X17135500Y-7958000D02*
X17135500Y-8359000D01*
X17135500Y-8359000D02*
X14886500Y-8359000D01*
X14886500Y-8359000D02*
X14886500Y-7958000D01*
X17590000Y-10867000D02*
X17590000Y-8398000D01*
X17187000Y-7721000D02*
X14839000Y-7721000D01*
X14880500Y-10906000D02*
X17129500Y-10906000D01*
X17129500Y-10906000D02*
X17129500Y-11307000D01*
X17129500Y-11307000D02*
X14880500Y-11307000D01*
X14880500Y-11307000D02*
X14880500Y-10906000D01*
D11*
D12*
X14802000Y-10215000D02*
X14842000Y-10255000D01*
X14842000Y-10215000D02*
X14802000Y-10255000D01*
X14822000Y-9184000D02*
X14862000Y-9224000D01*
X14862000Y-9184000D02*
X14822000Y-9224000D01*
X15114000Y-10004000D02*
X15154000Y-10044000D01*
X15154000Y-10004000D02*
X15114000Y-10044000D01*
X15226000Y-10154000D02*
X15266000Y-10194000D01*
X15266000Y-10154000D02*
X15226000Y-10194000D01*
X15260000Y-10601000D02*
X15300000Y-10641000D01*
X15300000Y-10601000D02*
X15260000Y-10641000D01*
X15261000Y-9347000D02*
X15301000Y-9387000D01*
X15301000Y-9347000D02*
X15261000Y-9387000D01*
X15309000Y-10087000D02*
X15349000Y-10127000D01*
X15349000Y-10087000D02*
X15309000Y-10127000D01*
X15466000Y-10499000D02*
X15506000Y-10539000D01*
X15506000Y-10499000D02*
X15466000Y-10539000D01*
X15664000Y-9459000D02*
X15704000Y-9499000D01*
X15704000Y-9459000D02*
X15664000Y-9499000D01*
X15664000Y-10087000D02*
X15704000Y-10127000D01*
X15704000Y-10087000D02*
X15664000Y-10127000D01*
X15690000Y-10411000D02*
X15730000Y-10451000D01*
X15730000Y-10411000D02*
X15690000Y-10451000D01*
X15739000Y-10155000D02*
X15779000Y-10195000D01*
X15779000Y-10155000D02*
X15739000Y-10195000D01*
X15775000Y-10253000D02*
X15815000Y-10293000D01*
X15815000Y-10253000D02*
X15775000Y-10293000D01*
X15785000Y-9531000D02*
X15825000Y-9571000D01*
X15825000Y-9531000D02*
X15785000Y-9571000D01*
X15807000Y-9844000D02*
X15847000Y-9884000D01*
X15847000Y-9844000D02*
X15807000Y-9884000D01*
X15828000Y-10403000D02*
X15868000Y-10443000D01*
X15868000Y-10403000D02*
X15828000Y-10443000D01*
X15892000Y-9532000D02*
X15932000Y-9572000D01*
X15932000Y-9532000D02*
X15892000Y-9572000D01*
X15926000Y-10339000D02*
X15966000Y-10379000D01*
X15966000Y-10339000D02*
X15926000Y-10379000D01*
X16028000Y-10175000D02*
X16068000Y-10215000D01*
X16068000Y-10175000D02*
X16028000Y-10215000D01*
X16046000Y-10395000D02*
X16086000Y-10435000D01*
X16086000Y-10395000D02*
X16046000Y-10435000D01*
X16107000Y-10096000D02*
X16147000Y-10136000D01*
X16147000Y-10096000D02*
X16107000Y-10136000D01*
X16157000Y-9060000D02*
X16197000Y-9100000D01*
X16197000Y-9060000D02*
X16157000Y-9100000D01*
X16184000Y-10028000D02*
X16224000Y-10068000D01*
X16224000Y-10028000D02*
X16184000Y-10068000D01*
X16185000Y-9918000D02*
X16225000Y-9958000D01*
X16225000Y-9918000D02*
X16185000Y-9958000D01*
X16251000Y-9540000D02*
X16291000Y-9580000D01*
X16291000Y-9540000D02*
X16251000Y-9580000D01*
X16305000Y-9211000D02*
X16345000Y-9251000D01*
X16345000Y-9211000D02*
X16305000Y-9251000D01*
X16318000Y-9699000D02*
X16358000Y-9739000D01*
X16358000Y-9699000D02*
X16318000Y-9739000D01*
X16324000Y-10499000D02*
X16364000Y-10539000D01*
X16364000Y-10499000D02*
X16324000Y-10539000D01*
X16469000Y-9323000D02*
X16509000Y-9363000D01*
X16509000Y-9323000D02*
X16469000Y-9363000D01*
X16479000Y-9695000D02*
X16519000Y-9735000D01*
X16519000Y-9695000D02*
X16479000Y-9735000D01*
X16509000Y-10049000D02*
X16549000Y-10089000D01*
X16549000Y-10049000D02*
X16509000Y-10089000D01*
X16587000Y-9715000D02*
X16627000Y-9755000D01*
X16627000Y-9715000D02*
X16587000Y-9755000D01*
X16596000Y-9452000D02*
X16636000Y-9492000D01*
X16636000Y-9452000D02*
X16596000Y-9492000D01*
X16636000Y-10019000D02*
X16676000Y-10059000D01*
X16676000Y-10019000D02*
X16636000Y-10059000D01*
X16741000Y-10606000D02*
X16781000Y-10646000D01*
X16781000Y-10606000D02*
X16741000Y-10646000D01*
X16788000Y-9448000D02*
X16828000Y-9488000D01*
X16828000Y-9448000D02*
X16788000Y-9488000D01*
X16956000Y-10255000D02*
X16996000Y-10295000D01*
X16996000Y-10255000D02*
X16956000Y-10295000D01*
X17061000Y-10431000D02*
X17101000Y-10471000D01*
X17101000Y-10431000D02*
X17061000Y-10471000D01*
X17158500Y-10520500D02*
X17198500Y-10560500D01*
X17198500Y-10520500D02*
X17158500Y-10560500D01*
X17170000Y-10258000D02*
X17210000Y-10298000D01*
X17210000Y-10258000D02*
X17170000Y-10298000D01*
X17255000Y-9481000D02*
X17295000Y-9521000D01*
X17295000Y-9481000D02*
X17255000Y-9521000D01*
X17315000Y-9195000D02*
X17355000Y-9235000D01*
X17355000Y-9195000D02*
X17315000Y-9235000D01*
D10*
X14646000Y-10498000D02*
G75*
G03*
X14646000Y-10498000I-50000J0D01*
G01*
X14646000Y-10752000D02*
G75*
G03*
X14646000Y-10752000I-50000J0D01*
G01*
X14900000Y-10498000D02*
G75*
G03*
X14900000Y-10498000I-50000J0D01*
G01*
X14900000Y-10752000D02*
G75*
G03*
X14900000Y-10752000I-50000J0D01*
G01*
X15154000Y-10752000D02*
G75*
G03*
X15154000Y-10752000I-50000J0D01*
G01*
X15408000Y-10752000D02*
G75*
G03*
X15408000Y-10752000I-50000J0D01*
G01*
X15667000Y-10755000D02*
G75*
G03*
X15667000Y-10755000I-50000J0D01*
G01*
X15921000Y-10755000D02*
G75*
G03*
X15921000Y-10755000I-50000J0D01*
G01*
X16175000Y-10755000D02*
G75*
G03*
X16175000Y-10755000I-50000J0D01*
G01*
X16420000Y-10755000D02*
G75*
G03*
X16420000Y-10755000I-50000J0D01*
G01*
X16620000Y-10244000D02*
G75*
G03*
X16620000Y-10244000I-50000J0D01*
G01*
X16620000Y-10498000D02*
G75*
G03*
X16620000Y-10498000I-50000J0D01*
G01*
X16678000Y-10752000D02*
G75*
G03*
X16678000Y-10752000I-50000J0D01*
G01*
X16932000Y-10752000D02*
G75*
G03*
X16932000Y-10752000I-50000J0D01*
G01*
X16940000Y-9730000D02*
G75*
G03*
X16940000Y-9730000I-50000J0D01*
G01*
X16940000Y-9984000D02*
G75*
G03*
X16940000Y-9984000I-50000J0D01*
G01*
X17186000Y-10752000D02*
G75*
G03*
X17186000Y-10752000I-50000J0D01*
G01*
X17194000Y-9730000D02*
G75*
G03*
X17194000Y-9730000I-50000J0D01*
G01*
X17194000Y-9984000D02*
G75*
G03*
X17194000Y-9984000I-50000J0D01*
G01*
X17431000Y-10243000D02*
G75*
G03*
X17431000Y-10243000I-50000J0D01*
G01*
X17431000Y-10497000D02*
G75*
G03*
X17431000Y-10497000I-50000J0D01*
G01*
X17440000Y-10752000D02*
G75*
G03*
X17440000Y-10752000I-50000J0D01*
G01*
X17448000Y-9730000D02*
G75*
G03*
X17448000Y-9730000I-50000J0D01*
G01*
X17449000Y-9983000D02*
G75*
G03*
X17449000Y-9983000I-50000J0D01*
G01*
D11*
X14668619Y-11842476D02*
X14668619Y-11642476D01*
X14668619Y-11642476D02*
X14716238Y-11642476D01*
X14716238Y-11642476D02*
X14744809Y-11652000D01*
X14744809Y-11652000D02*
X14763857Y-11671048D01*
X14763857Y-11671048D02*
X14773381Y-11690095D01*
X14773381Y-11690095D02*
X14782905Y-11728190D01*
X14782905Y-11728190D02*
X14782905Y-11756762D01*
X14782905Y-11756762D02*
X14773381Y-11794857D01*
X14773381Y-11794857D02*
X14763857Y-11813905D01*
X14763857Y-11813905D02*
X14744809Y-11832952D01*
X14744809Y-11832952D02*
X14716238Y-11842476D01*
X14716238Y-11842476D02*
X14668619Y-11842476D01*
X14868619Y-11842476D02*
X14868619Y-11709143D01*
X14868619Y-11747238D02*
X14878143Y-11728190D01*
X14878143Y-11728190D02*
X14887667Y-11718667D01*
X14887667Y-11718667D02*
X14906714Y-11709143D01*
X14906714Y-11709143D02*
X14925762Y-11709143D01*
X14992428Y-11842476D02*
X14992428Y-11709143D01*
X14992428Y-11642476D02*
X14982905Y-11652000D01*
X14982905Y-11652000D02*
X14992428Y-11661524D01*
X14992428Y-11661524D02*
X15001952Y-11652000D01*
X15001952Y-11652000D02*
X14992428Y-11642476D01*
X14992428Y-11642476D02*
X14992428Y-11661524D01*
X15116238Y-11842476D02*
X15097190Y-11832952D01*
X15097190Y-11832952D02*
X15087667Y-11813905D01*
X15087667Y-11813905D02*
X15087667Y-11642476D01*
X15221000Y-11842476D02*
X15201952Y-11832952D01*
X15201952Y-11832952D02*
X15192428Y-11813905D01*
X15192428Y-11813905D02*
X15192428Y-11642476D01*
X15417190Y-11842476D02*
X15417190Y-11642476D01*
X15417190Y-11642476D02*
X15483857Y-11785333D01*
X15483857Y-11785333D02*
X15550524Y-11642476D01*
X15550524Y-11642476D02*
X15550524Y-11842476D01*
X15731476Y-11842476D02*
X15731476Y-11737714D01*
X15731476Y-11737714D02*
X15721952Y-11718667D01*
X15721952Y-11718667D02*
X15702905Y-11709143D01*
X15702905Y-11709143D02*
X15664809Y-11709143D01*
X15664809Y-11709143D02*
X15645762Y-11718667D01*
X15731476Y-11832952D02*
X15712428Y-11842476D01*
X15712428Y-11842476D02*
X15664809Y-11842476D01*
X15664809Y-11842476D02*
X15645762Y-11832952D01*
X15645762Y-11832952D02*
X15636238Y-11813905D01*
X15636238Y-11813905D02*
X15636238Y-11794857D01*
X15636238Y-11794857D02*
X15645762Y-11775809D01*
X15645762Y-11775809D02*
X15664809Y-11766286D01*
X15664809Y-11766286D02*
X15712428Y-11766286D01*
X15712428Y-11766286D02*
X15731476Y-11756762D01*
X15826714Y-11709143D02*
X15826714Y-11909143D01*
X15826714Y-11718667D02*
X15845762Y-11709143D01*
X15845762Y-11709143D02*
X15883857Y-11709143D01*
X15883857Y-11709143D02*
X15902905Y-11718667D01*
X15902905Y-11718667D02*
X15912428Y-11728190D01*
X15912428Y-11728190D02*
X15921952Y-11747238D01*
X15921952Y-11747238D02*
X15921952Y-11804381D01*
X15921952Y-11804381D02*
X15912428Y-11823428D01*
X15912428Y-11823428D02*
X15902905Y-11832952D01*
X15902905Y-11832952D02*
X15883857Y-11842476D01*
X15883857Y-11842476D02*
X15845762Y-11842476D01*
X15845762Y-11842476D02*
X15826714Y-11832952D01*
X16007667Y-11823428D02*
X16017190Y-11832952D01*
X16017190Y-11832952D02*
X16007667Y-11842476D01*
X16007667Y-11842476D02*
X15998143Y-11832952D01*
X15998143Y-11832952D02*
X16007667Y-11823428D01*
X16007667Y-11823428D02*
X16007667Y-11842476D01*
X16007667Y-11718667D02*
X16017190Y-11728190D01*
X16017190Y-11728190D02*
X16007667Y-11737714D01*
X16007667Y-11737714D02*
X15998143Y-11728190D01*
X15998143Y-11728190D02*
X16007667Y-11718667D01*
X16007667Y-11718667D02*
X16007667Y-11737714D01*
D12*
X14381000Y-12169000D02*
X14421000Y-12209000D01*
X14421000Y-12169000D02*
X14381000Y-12209000D01*
D11*
X14706714Y-12062476D02*
X14725762Y-12062476D01*
X14725762Y-12062476D02*
X14744809Y-12072000D01*
X14744809Y-12072000D02*
X14754333Y-12081524D01*
X14754333Y-12081524D02*
X14763857Y-12100571D01*
X14763857Y-12100571D02*
X14773381Y-12138667D01*
X14773381Y-12138667D02*
X14773381Y-12186286D01*
X14773381Y-12186286D02*
X14763857Y-12224381D01*
X14763857Y-12224381D02*
X14754333Y-12243428D01*
X14754333Y-12243428D02*
X14744809Y-12252952D01*
X14744809Y-12252952D02*
X14725762Y-12262476D01*
X14725762Y-12262476D02*
X14706714Y-12262476D01*
X14706714Y-12262476D02*
X14687667Y-12252952D01*
X14687667Y-12252952D02*
X14678143Y-12243428D01*
X14678143Y-12243428D02*
X14668619Y-12224381D01*
X14668619Y-12224381D02*
X14659095Y-12186286D01*
X14659095Y-12186286D02*
X14659095Y-12138667D01*
X14659095Y-12138667D02*
X14668619Y-12100571D01*
X14668619Y-12100571D02*
X14678143Y-12081524D01*
X14678143Y-12081524D02*
X14687667Y-12072000D01*
X14687667Y-12072000D02*
X14706714Y-12062476D01*
X14859095Y-12243428D02*
X14868619Y-12252952D01*
X14868619Y-12252952D02*
X14859095Y-12262476D01*
X14859095Y-12262476D02*
X14849571Y-12252952D01*
X14849571Y-12252952D02*
X14859095Y-12243428D01*
X14859095Y-12243428D02*
X14859095Y-12262476D01*
X15040048Y-12129143D02*
X15040048Y-12262476D01*
X14992428Y-12052952D02*
X14944809Y-12195809D01*
X14944809Y-12195809D02*
X15068619Y-12195809D01*
X15182905Y-12062476D02*
X15201952Y-12062476D01*
X15201952Y-12062476D02*
X15221000Y-12072000D01*
X15221000Y-12072000D02*
X15230524Y-12081524D01*
X15230524Y-12081524D02*
X15240048Y-12100571D01*
X15240048Y-12100571D02*
X15249571Y-12138667D01*
X15249571Y-12138667D02*
X15249571Y-12186286D01*
X15249571Y-12186286D02*
X15240048Y-12224381D01*
X15240048Y-12224381D02*
X15230524Y-12243428D01*
X15230524Y-12243428D02*
X15221000Y-12252952D01*
X15221000Y-12252952D02*
X15201952Y-12262476D01*
X15201952Y-12262476D02*
X15182905Y-12262476D01*
X15182905Y-12262476D02*
X15163857Y-12252952D01*
X15163857Y-12252952D02*
X15154333Y-12243428D01*
X15154333Y-12243428D02*
X15144809Y-12224381D01*
X15144809Y-12224381D02*
X15135286Y-12186286D01*
X15135286Y-12186286D02*
X15135286Y-12138667D01*
X15135286Y-12138667D02*
X15144809Y-12100571D01*
X15144809Y-12100571D02*
X15154333Y-12081524D01*
X15154333Y-12081524D02*
X15163857Y-12072000D01*
X15163857Y-12072000D02*
X15182905Y-12062476D01*
X15373381Y-12062476D02*
X15392429Y-12062476D01*
X15392429Y-12062476D02*
X15411476Y-12072000D01*
X15411476Y-12072000D02*
X15421000Y-12081524D01*
X15421000Y-12081524D02*
X15430524Y-12100571D01*
X15430524Y-12100571D02*
X15440048Y-12138667D01*
X15440048Y-12138667D02*
X15440048Y-12186286D01*
X15440048Y-12186286D02*
X15430524Y-12224381D01*
X15430524Y-12224381D02*
X15421000Y-12243428D01*
X15421000Y-12243428D02*
X15411476Y-12252952D01*
X15411476Y-12252952D02*
X15392429Y-12262476D01*
X15392429Y-12262476D02*
X15373381Y-12262476D01*
X15373381Y-12262476D02*
X15354333Y-12252952D01*
X15354333Y-12252952D02*
X15344809Y-12243428D01*
X15344809Y-12243428D02*
X15335286Y-12224381D01*
X15335286Y-12224381D02*
X15325762Y-12186286D01*
X15325762Y-12186286D02*
X15325762Y-12138667D01*
X15325762Y-12138667D02*
X15335286Y-12100571D01*
X15335286Y-12100571D02*
X15344809Y-12081524D01*
X15344809Y-12081524D02*
X15354333Y-12072000D01*
X15354333Y-12072000D02*
X15373381Y-12062476D01*
X15525762Y-12262476D02*
X15525762Y-12129143D01*
X15525762Y-12148190D02*
X15535286Y-12138667D01*
X15535286Y-12138667D02*
X15554333Y-12129143D01*
X15554333Y-12129143D02*
X15582905Y-12129143D01*
X15582905Y-12129143D02*
X15601952Y-12138667D01*
X15601952Y-12138667D02*
X15611476Y-12157714D01*
X15611476Y-12157714D02*
X15611476Y-12262476D01*
X15611476Y-12157714D02*
X15621000Y-12138667D01*
X15621000Y-12138667D02*
X15640048Y-12129143D01*
X15640048Y-12129143D02*
X15668619Y-12129143D01*
X15668619Y-12129143D02*
X15687667Y-12138667D01*
X15687667Y-12138667D02*
X15697190Y-12157714D01*
X15697190Y-12157714D02*
X15697190Y-12262476D01*
X15792429Y-12262476D02*
X15792429Y-12129143D01*
X15792429Y-12148190D02*
X15801952Y-12138667D01*
X15801952Y-12138667D02*
X15821000Y-12129143D01*
X15821000Y-12129143D02*
X15849571Y-12129143D01*
X15849571Y-12129143D02*
X15868619Y-12138667D01*
X15868619Y-12138667D02*
X15878143Y-12157714D01*
X15878143Y-12157714D02*
X15878143Y-12262476D01*
X15878143Y-12157714D02*
X15887667Y-12138667D01*
X15887667Y-12138667D02*
X15906714Y-12129143D01*
X15906714Y-12129143D02*
X15935286Y-12129143D01*
X15935286Y-12129143D02*
X15954333Y-12138667D01*
X15954333Y-12138667D02*
X15963857Y-12157714D01*
X15963857Y-12157714D02*
X15963857Y-12262476D01*
X16321952Y-12052952D02*
X16150524Y-12310095D01*
X16546714Y-12062476D02*
X16565762Y-12062476D01*
X16565762Y-12062476D02*
X16584810Y-12072000D01*
X16584810Y-12072000D02*
X16594333Y-12081524D01*
X16594333Y-12081524D02*
X16603857Y-12100571D01*
X16603857Y-12100571D02*
X16613381Y-12138667D01*
X16613381Y-12138667D02*
X16613381Y-12186286D01*
X16613381Y-12186286D02*
X16603857Y-12224381D01*
X16603857Y-12224381D02*
X16594333Y-12243428D01*
X16594333Y-12243428D02*
X16584810Y-12252952D01*
X16584810Y-12252952D02*
X16565762Y-12262476D01*
X16565762Y-12262476D02*
X16546714Y-12262476D01*
X16546714Y-12262476D02*
X16527667Y-12252952D01*
X16527667Y-12252952D02*
X16518143Y-12243428D01*
X16518143Y-12243428D02*
X16508619Y-12224381D01*
X16508619Y-12224381D02*
X16499095Y-12186286D01*
X16499095Y-12186286D02*
X16499095Y-12138667D01*
X16499095Y-12138667D02*
X16508619Y-12100571D01*
X16508619Y-12100571D02*
X16518143Y-12081524D01*
X16518143Y-12081524D02*
X16527667Y-12072000D01*
X16527667Y-12072000D02*
X16546714Y-12062476D01*
X16699095Y-12243428D02*
X16708619Y-12252952D01*
X16708619Y-12252952D02*
X16699095Y-12262476D01*
X16699095Y-12262476D02*
X16689571Y-12252952D01*
X16689571Y-12252952D02*
X16699095Y-12243428D01*
X16699095Y-12243428D02*
X16699095Y-12262476D01*
X16832429Y-12062476D02*
X16851476Y-12062476D01*
X16851476Y-12062476D02*
X16870524Y-12072000D01*
X16870524Y-12072000D02*
X16880048Y-12081524D01*
X16880048Y-12081524D02*
X16889572Y-12100571D01*
X16889572Y-12100571D02*
X16899095Y-12138667D01*
X16899095Y-12138667D02*
X16899095Y-12186286D01*
X16899095Y-12186286D02*
X16889572Y-12224381D01*
X16889572Y-12224381D02*
X16880048Y-12243428D01*
X16880048Y-12243428D02*
X16870524Y-12252952D01*
X16870524Y-12252952D02*
X16851476Y-12262476D01*
X16851476Y-12262476D02*
X16832429Y-12262476D01*
X16832429Y-12262476D02*
X16813381Y-12252952D01*
X16813381Y-12252952D02*
X16803857Y-12243428D01*
X16803857Y-12243428D02*
X16794333Y-12224381D01*
X16794333Y-12224381D02*
X16784810Y-12186286D01*
X16784810Y-12186286D02*
X16784810Y-12138667D01*
X16784810Y-12138667D02*
X16794333Y-12100571D01*
X16794333Y-12100571D02*
X16803857Y-12081524D01*
X16803857Y-12081524D02*
X16813381Y-12072000D01*
X16813381Y-12072000D02*
X16832429Y-12062476D01*
X17089572Y-12262476D02*
X16975286Y-12262476D01*
X17032429Y-12262476D02*
X17032429Y-12062476D01*
X17032429Y-12062476D02*
X17013381Y-12091048D01*
X17013381Y-12091048D02*
X16994333Y-12110095D01*
X16994333Y-12110095D02*
X16975286Y-12119619D01*
X17270524Y-12062476D02*
X17175286Y-12062476D01*
X17175286Y-12062476D02*
X17165762Y-12157714D01*
X17165762Y-12157714D02*
X17175286Y-12148190D01*
X17175286Y-12148190D02*
X17194333Y-12138667D01*
X17194333Y-12138667D02*
X17241953Y-12138667D01*
X17241953Y-12138667D02*
X17261000Y-12148190D01*
X17261000Y-12148190D02*
X17270524Y-12157714D01*
X17270524Y-12157714D02*
X17280048Y-12176762D01*
X17280048Y-12176762D02*
X17280048Y-12224381D01*
X17280048Y-12224381D02*
X17270524Y-12243428D01*
X17270524Y-12243428D02*
X17261000Y-12252952D01*
X17261000Y-12252952D02*
X17241953Y-12262476D01*
X17241953Y-12262476D02*
X17194333Y-12262476D01*
X17194333Y-12262476D02*
X17175286Y-12252952D01*
X17175286Y-12252952D02*
X17165762Y-12243428D01*
X17346714Y-12062476D02*
X17480048Y-12062476D01*
X17480048Y-12062476D02*
X17394333Y-12262476D01*
X17546714Y-12062476D02*
X17546714Y-12100571D01*
X17622905Y-12062476D02*
X17622905Y-12100571D01*
X17885762Y-12338667D02*
X17876238Y-12329143D01*
X17876238Y-12329143D02*
X17857191Y-12300571D01*
X17857191Y-12300571D02*
X17847667Y-12281524D01*
X17847667Y-12281524D02*
X17838143Y-12252952D01*
X17838143Y-12252952D02*
X17828619Y-12205333D01*
X17828619Y-12205333D02*
X17828619Y-12167238D01*
X17828619Y-12167238D02*
X17838143Y-12119619D01*
X17838143Y-12119619D02*
X17847667Y-12091048D01*
X17847667Y-12091048D02*
X17857191Y-12072000D01*
X17857191Y-12072000D02*
X17876238Y-12043428D01*
X17876238Y-12043428D02*
X17885762Y-12033905D01*
X18047667Y-12129143D02*
X18047667Y-12262476D01*
X18000048Y-12052952D02*
X17952429Y-12195809D01*
X17952429Y-12195809D02*
X18076238Y-12195809D01*
X18142905Y-12081524D02*
X18152429Y-12072000D01*
X18152429Y-12072000D02*
X18171476Y-12062476D01*
X18171476Y-12062476D02*
X18219095Y-12062476D01*
X18219095Y-12062476D02*
X18238143Y-12072000D01*
X18238143Y-12072000D02*
X18247667Y-12081524D01*
X18247667Y-12081524D02*
X18257191Y-12100571D01*
X18257191Y-12100571D02*
X18257191Y-12119619D01*
X18257191Y-12119619D02*
X18247667Y-12148190D01*
X18247667Y-12148190D02*
X18133381Y-12262476D01*
X18133381Y-12262476D02*
X18257191Y-12262476D01*
X18462905Y-12262476D02*
X18462905Y-12062476D01*
X18548619Y-12262476D02*
X18548619Y-12157714D01*
X18548619Y-12157714D02*
X18539095Y-12138667D01*
X18539095Y-12138667D02*
X18520048Y-12129143D01*
X18520048Y-12129143D02*
X18491476Y-12129143D01*
X18491476Y-12129143D02*
X18472429Y-12138667D01*
X18472429Y-12138667D02*
X18462905Y-12148190D01*
X18672429Y-12262476D02*
X18653381Y-12252952D01*
X18653381Y-12252952D02*
X18643857Y-12243428D01*
X18643857Y-12243428D02*
X18634334Y-12224381D01*
X18634334Y-12224381D02*
X18634334Y-12167238D01*
X18634334Y-12167238D02*
X18643857Y-12148190D01*
X18643857Y-12148190D02*
X18653381Y-12138667D01*
X18653381Y-12138667D02*
X18672429Y-12129143D01*
X18672429Y-12129143D02*
X18701000Y-12129143D01*
X18701000Y-12129143D02*
X18720048Y-12138667D01*
X18720048Y-12138667D02*
X18729572Y-12148190D01*
X18729572Y-12148190D02*
X18739095Y-12167238D01*
X18739095Y-12167238D02*
X18739095Y-12224381D01*
X18739095Y-12224381D02*
X18729572Y-12243428D01*
X18729572Y-12243428D02*
X18720048Y-12252952D01*
X18720048Y-12252952D02*
X18701000Y-12262476D01*
X18701000Y-12262476D02*
X18672429Y-12262476D01*
X18853381Y-12262476D02*
X18834334Y-12252952D01*
X18834334Y-12252952D02*
X18824810Y-12233905D01*
X18824810Y-12233905D02*
X18824810Y-12062476D01*
X19005762Y-12252952D02*
X18986715Y-12262476D01*
X18986715Y-12262476D02*
X18948619Y-12262476D01*
X18948619Y-12262476D02*
X18929572Y-12252952D01*
X18929572Y-12252952D02*
X18920048Y-12233905D01*
X18920048Y-12233905D02*
X18920048Y-12157714D01*
X18920048Y-12157714D02*
X18929572Y-12138667D01*
X18929572Y-12138667D02*
X18948619Y-12129143D01*
X18948619Y-12129143D02*
X18986715Y-12129143D01*
X18986715Y-12129143D02*
X19005762Y-12138667D01*
X19005762Y-12138667D02*
X19015286Y-12157714D01*
X19015286Y-12157714D02*
X19015286Y-12176762D01*
X19015286Y-12176762D02*
X18920048Y-12195809D01*
X19091476Y-12252952D02*
X19110524Y-12262476D01*
X19110524Y-12262476D02*
X19148619Y-12262476D01*
X19148619Y-12262476D02*
X19167667Y-12252952D01*
X19167667Y-12252952D02*
X19177191Y-12233905D01*
X19177191Y-12233905D02*
X19177191Y-12224381D01*
X19177191Y-12224381D02*
X19167667Y-12205333D01*
X19167667Y-12205333D02*
X19148619Y-12195809D01*
X19148619Y-12195809D02*
X19120048Y-12195809D01*
X19120048Y-12195809D02*
X19101000Y-12186286D01*
X19101000Y-12186286D02*
X19091476Y-12167238D01*
X19091476Y-12167238D02*
X19091476Y-12157714D01*
X19091476Y-12157714D02*
X19101000Y-12138667D01*
X19101000Y-12138667D02*
X19120048Y-12129143D01*
X19120048Y-12129143D02*
X19148619Y-12129143D01*
X19148619Y-12129143D02*
X19167667Y-12138667D01*
X19243857Y-12338667D02*
X19253381Y-12329143D01*
X19253381Y-12329143D02*
X19272429Y-12300571D01*
X19272429Y-12300571D02*
X19281953Y-12281524D01*
X19281953Y-12281524D02*
X19291476Y-12252952D01*
X19291476Y-12252952D02*
X19301000Y-12205333D01*
X19301000Y-12205333D02*
X19301000Y-12167238D01*
X19301000Y-12167238D02*
X19291476Y-12119619D01*
X19291476Y-12119619D02*
X19281953Y-12091048D01*
X19281953Y-12091048D02*
X19272429Y-12072000D01*
X19272429Y-12072000D02*
X19253381Y-12043428D01*
X19253381Y-12043428D02*
X19243857Y-12033905D01*
D10*
X14421000Y-12453000D02*
G75*
G03*
X14421000Y-12453000I-50000J0D01*
G01*
D11*
X14773381Y-12526476D02*
X14659095Y-12526476D01*
X14716238Y-12526476D02*
X14716238Y-12326476D01*
X14716238Y-12326476D02*
X14697190Y-12355048D01*
X14697190Y-12355048D02*
X14678143Y-12374095D01*
X14678143Y-12374095D02*
X14659095Y-12383619D01*
X14859095Y-12507428D02*
X14868619Y-12516952D01*
X14868619Y-12516952D02*
X14859095Y-12526476D01*
X14859095Y-12526476D02*
X14849571Y-12516952D01*
X14849571Y-12516952D02*
X14859095Y-12507428D01*
X14859095Y-12507428D02*
X14859095Y-12526476D01*
X14992428Y-12326476D02*
X15011476Y-12326476D01*
X15011476Y-12326476D02*
X15030524Y-12336000D01*
X15030524Y-12336000D02*
X15040048Y-12345524D01*
X15040048Y-12345524D02*
X15049571Y-12364571D01*
X15049571Y-12364571D02*
X15059095Y-12402667D01*
X15059095Y-12402667D02*
X15059095Y-12450286D01*
X15059095Y-12450286D02*
X15049571Y-12488381D01*
X15049571Y-12488381D02*
X15040048Y-12507428D01*
X15040048Y-12507428D02*
X15030524Y-12516952D01*
X15030524Y-12516952D02*
X15011476Y-12526476D01*
X15011476Y-12526476D02*
X14992428Y-12526476D01*
X14992428Y-12526476D02*
X14973381Y-12516952D01*
X14973381Y-12516952D02*
X14963857Y-12507428D01*
X14963857Y-12507428D02*
X14954333Y-12488381D01*
X14954333Y-12488381D02*
X14944809Y-12450286D01*
X14944809Y-12450286D02*
X14944809Y-12402667D01*
X14944809Y-12402667D02*
X14954333Y-12364571D01*
X14954333Y-12364571D02*
X14963857Y-12345524D01*
X14963857Y-12345524D02*
X14973381Y-12336000D01*
X14973381Y-12336000D02*
X14992428Y-12326476D01*
X15182905Y-12326476D02*
X15201952Y-12326476D01*
X15201952Y-12326476D02*
X15221000Y-12336000D01*
X15221000Y-12336000D02*
X15230524Y-12345524D01*
X15230524Y-12345524D02*
X15240048Y-12364571D01*
X15240048Y-12364571D02*
X15249571Y-12402667D01*
X15249571Y-12402667D02*
X15249571Y-12450286D01*
X15249571Y-12450286D02*
X15240048Y-12488381D01*
X15240048Y-12488381D02*
X15230524Y-12507428D01*
X15230524Y-12507428D02*
X15221000Y-12516952D01*
X15221000Y-12516952D02*
X15201952Y-12526476D01*
X15201952Y-12526476D02*
X15182905Y-12526476D01*
X15182905Y-12526476D02*
X15163857Y-12516952D01*
X15163857Y-12516952D02*
X15154333Y-12507428D01*
X15154333Y-12507428D02*
X15144809Y-12488381D01*
X15144809Y-12488381D02*
X15135286Y-12450286D01*
X15135286Y-12450286D02*
X15135286Y-12402667D01*
X15135286Y-12402667D02*
X15144809Y-12364571D01*
X15144809Y-12364571D02*
X15154333Y-12345524D01*
X15154333Y-12345524D02*
X15163857Y-12336000D01*
X15163857Y-12336000D02*
X15182905Y-12326476D01*
X15373381Y-12326476D02*
X15392429Y-12326476D01*
X15392429Y-12326476D02*
X15411476Y-12336000D01*
X15411476Y-12336000D02*
X15421000Y-12345524D01*
X15421000Y-12345524D02*
X15430524Y-12364571D01*
X15430524Y-12364571D02*
X15440048Y-12402667D01*
X15440048Y-12402667D02*
X15440048Y-12450286D01*
X15440048Y-12450286D02*
X15430524Y-12488381D01*
X15430524Y-12488381D02*
X15421000Y-12507428D01*
X15421000Y-12507428D02*
X15411476Y-12516952D01*
X15411476Y-12516952D02*
X15392429Y-12526476D01*
X15392429Y-12526476D02*
X15373381Y-12526476D01*
X15373381Y-12526476D02*
X15354333Y-12516952D01*
X15354333Y-12516952D02*
X15344809Y-12507428D01*
X15344809Y-12507428D02*
X15335286Y-12488381D01*
X15335286Y-12488381D02*
X15325762Y-12450286D01*
X15325762Y-12450286D02*
X15325762Y-12402667D01*
X15325762Y-12402667D02*
X15335286Y-12364571D01*
X15335286Y-12364571D02*
X15344809Y-12345524D01*
X15344809Y-12345524D02*
X15354333Y-12336000D01*
X15354333Y-12336000D02*
X15373381Y-12326476D01*
X15525762Y-12526476D02*
X15525762Y-12393143D01*
X15525762Y-12412190D02*
X15535286Y-12402667D01*
X15535286Y-12402667D02*
X15554333Y-12393143D01*
X15554333Y-12393143D02*
X15582905Y-12393143D01*
X15582905Y-12393143D02*
X15601952Y-12402667D01*
X15601952Y-12402667D02*
X15611476Y-12421714D01*
X15611476Y-12421714D02*
X15611476Y-12526476D01*
X15611476Y-12421714D02*
X15621000Y-12402667D01*
X15621000Y-12402667D02*
X15640048Y-12393143D01*
X15640048Y-12393143D02*
X15668619Y-12393143D01*
X15668619Y-12393143D02*
X15687667Y-12402667D01*
X15687667Y-12402667D02*
X15697190Y-12421714D01*
X15697190Y-12421714D02*
X15697190Y-12526476D01*
X15792429Y-12526476D02*
X15792429Y-12393143D01*
X15792429Y-12412190D02*
X15801952Y-12402667D01*
X15801952Y-12402667D02*
X15821000Y-12393143D01*
X15821000Y-12393143D02*
X15849571Y-12393143D01*
X15849571Y-12393143D02*
X15868619Y-12402667D01*
X15868619Y-12402667D02*
X15878143Y-12421714D01*
X15878143Y-12421714D02*
X15878143Y-12526476D01*
X15878143Y-12421714D02*
X15887667Y-12402667D01*
X15887667Y-12402667D02*
X15906714Y-12393143D01*
X15906714Y-12393143D02*
X15935286Y-12393143D01*
X15935286Y-12393143D02*
X15954333Y-12402667D01*
X15954333Y-12402667D02*
X15963857Y-12421714D01*
X15963857Y-12421714D02*
X15963857Y-12526476D01*
X16321952Y-12316952D02*
X16150524Y-12574095D01*
X16546714Y-12326476D02*
X16565762Y-12326476D01*
X16565762Y-12326476D02*
X16584810Y-12336000D01*
X16584810Y-12336000D02*
X16594333Y-12345524D01*
X16594333Y-12345524D02*
X16603857Y-12364571D01*
X16603857Y-12364571D02*
X16613381Y-12402667D01*
X16613381Y-12402667D02*
X16613381Y-12450286D01*
X16613381Y-12450286D02*
X16603857Y-12488381D01*
X16603857Y-12488381D02*
X16594333Y-12507428D01*
X16594333Y-12507428D02*
X16584810Y-12516952D01*
X16584810Y-12516952D02*
X16565762Y-12526476D01*
X16565762Y-12526476D02*
X16546714Y-12526476D01*
X16546714Y-12526476D02*
X16527667Y-12516952D01*
X16527667Y-12516952D02*
X16518143Y-12507428D01*
X16518143Y-12507428D02*
X16508619Y-12488381D01*
X16508619Y-12488381D02*
X16499095Y-12450286D01*
X16499095Y-12450286D02*
X16499095Y-12402667D01*
X16499095Y-12402667D02*
X16508619Y-12364571D01*
X16508619Y-12364571D02*
X16518143Y-12345524D01*
X16518143Y-12345524D02*
X16527667Y-12336000D01*
X16527667Y-12336000D02*
X16546714Y-12326476D01*
X16699095Y-12507428D02*
X16708619Y-12516952D01*
X16708619Y-12516952D02*
X16699095Y-12526476D01*
X16699095Y-12526476D02*
X16689571Y-12516952D01*
X16689571Y-12516952D02*
X16699095Y-12507428D01*
X16699095Y-12507428D02*
X16699095Y-12526476D01*
X16832429Y-12326476D02*
X16851476Y-12326476D01*
X16851476Y-12326476D02*
X16870524Y-12336000D01*
X16870524Y-12336000D02*
X16880048Y-12345524D01*
X16880048Y-12345524D02*
X16889572Y-12364571D01*
X16889572Y-12364571D02*
X16899095Y-12402667D01*
X16899095Y-12402667D02*
X16899095Y-12450286D01*
X16899095Y-12450286D02*
X16889572Y-12488381D01*
X16889572Y-12488381D02*
X16880048Y-12507428D01*
X16880048Y-12507428D02*
X16870524Y-12516952D01*
X16870524Y-12516952D02*
X16851476Y-12526476D01*
X16851476Y-12526476D02*
X16832429Y-12526476D01*
X16832429Y-12526476D02*
X16813381Y-12516952D01*
X16813381Y-12516952D02*
X16803857Y-12507428D01*
X16803857Y-12507428D02*
X16794333Y-12488381D01*
X16794333Y-12488381D02*
X16784810Y-12450286D01*
X16784810Y-12450286D02*
X16784810Y-12402667D01*
X16784810Y-12402667D02*
X16794333Y-12364571D01*
X16794333Y-12364571D02*
X16803857Y-12345524D01*
X16803857Y-12345524D02*
X16813381Y-12336000D01*
X16813381Y-12336000D02*
X16832429Y-12326476D01*
X16965762Y-12326476D02*
X17089572Y-12326476D01*
X17089572Y-12326476D02*
X17022905Y-12402667D01*
X17022905Y-12402667D02*
X17051476Y-12402667D01*
X17051476Y-12402667D02*
X17070524Y-12412190D01*
X17070524Y-12412190D02*
X17080048Y-12421714D01*
X17080048Y-12421714D02*
X17089572Y-12440762D01*
X17089572Y-12440762D02*
X17089572Y-12488381D01*
X17089572Y-12488381D02*
X17080048Y-12507428D01*
X17080048Y-12507428D02*
X17070524Y-12516952D01*
X17070524Y-12516952D02*
X17051476Y-12526476D01*
X17051476Y-12526476D02*
X16994333Y-12526476D01*
X16994333Y-12526476D02*
X16975286Y-12516952D01*
X16975286Y-12516952D02*
X16965762Y-12507428D01*
X17184810Y-12526476D02*
X17222905Y-12526476D01*
X17222905Y-12526476D02*
X17241953Y-12516952D01*
X17241953Y-12516952D02*
X17251476Y-12507428D01*
X17251476Y-12507428D02*
X17270524Y-12478857D01*
X17270524Y-12478857D02*
X17280048Y-12440762D01*
X17280048Y-12440762D02*
X17280048Y-12364571D01*
X17280048Y-12364571D02*
X17270524Y-12345524D01*
X17270524Y-12345524D02*
X17261000Y-12336000D01*
X17261000Y-12336000D02*
X17241953Y-12326476D01*
X17241953Y-12326476D02*
X17203857Y-12326476D01*
X17203857Y-12326476D02*
X17184810Y-12336000D01*
X17184810Y-12336000D02*
X17175286Y-12345524D01*
X17175286Y-12345524D02*
X17165762Y-12364571D01*
X17165762Y-12364571D02*
X17165762Y-12412190D01*
X17165762Y-12412190D02*
X17175286Y-12431238D01*
X17175286Y-12431238D02*
X17184810Y-12440762D01*
X17184810Y-12440762D02*
X17203857Y-12450286D01*
X17203857Y-12450286D02*
X17241953Y-12450286D01*
X17241953Y-12450286D02*
X17261000Y-12440762D01*
X17261000Y-12440762D02*
X17270524Y-12431238D01*
X17270524Y-12431238D02*
X17280048Y-12412190D01*
X17451476Y-12393143D02*
X17451476Y-12526476D01*
X17403857Y-12316952D02*
X17356238Y-12459809D01*
X17356238Y-12459809D02*
X17480048Y-12459809D01*
X17546714Y-12326476D02*
X17546714Y-12364571D01*
X17622905Y-12326476D02*
X17622905Y-12364571D01*
X17885762Y-12602667D02*
X17876238Y-12593143D01*
X17876238Y-12593143D02*
X17857191Y-12564571D01*
X17857191Y-12564571D02*
X17847667Y-12545524D01*
X17847667Y-12545524D02*
X17838143Y-12516952D01*
X17838143Y-12516952D02*
X17828619Y-12469333D01*
X17828619Y-12469333D02*
X17828619Y-12431238D01*
X17828619Y-12431238D02*
X17838143Y-12383619D01*
X17838143Y-12383619D02*
X17847667Y-12355048D01*
X17847667Y-12355048D02*
X17857191Y-12336000D01*
X17857191Y-12336000D02*
X17876238Y-12307428D01*
X17876238Y-12307428D02*
X17885762Y-12297905D01*
X17952429Y-12345524D02*
X17961953Y-12336000D01*
X17961953Y-12336000D02*
X17981000Y-12326476D01*
X17981000Y-12326476D02*
X18028619Y-12326476D01*
X18028619Y-12326476D02*
X18047667Y-12336000D01*
X18047667Y-12336000D02*
X18057191Y-12345524D01*
X18057191Y-12345524D02*
X18066714Y-12364571D01*
X18066714Y-12364571D02*
X18066714Y-12383619D01*
X18066714Y-12383619D02*
X18057191Y-12412190D01*
X18057191Y-12412190D02*
X17942905Y-12526476D01*
X17942905Y-12526476D02*
X18066714Y-12526476D01*
X18238143Y-12393143D02*
X18238143Y-12526476D01*
X18190524Y-12316952D02*
X18142905Y-12459809D01*
X18142905Y-12459809D02*
X18266714Y-12459809D01*
X18462905Y-12526476D02*
X18462905Y-12326476D01*
X18548619Y-12526476D02*
X18548619Y-12421714D01*
X18548619Y-12421714D02*
X18539095Y-12402667D01*
X18539095Y-12402667D02*
X18520048Y-12393143D01*
X18520048Y-12393143D02*
X18491476Y-12393143D01*
X18491476Y-12393143D02*
X18472429Y-12402667D01*
X18472429Y-12402667D02*
X18462905Y-12412190D01*
X18672429Y-12526476D02*
X18653381Y-12516952D01*
X18653381Y-12516952D02*
X18643857Y-12507428D01*
X18643857Y-12507428D02*
X18634334Y-12488381D01*
X18634334Y-12488381D02*
X18634334Y-12431238D01*
X18634334Y-12431238D02*
X18643857Y-12412190D01*
X18643857Y-12412190D02*
X18653381Y-12402667D01*
X18653381Y-12402667D02*
X18672429Y-12393143D01*
X18672429Y-12393143D02*
X18701000Y-12393143D01*
X18701000Y-12393143D02*
X18720048Y-12402667D01*
X18720048Y-12402667D02*
X18729572Y-12412190D01*
X18729572Y-12412190D02*
X18739095Y-12431238D01*
X18739095Y-12431238D02*
X18739095Y-12488381D01*
X18739095Y-12488381D02*
X18729572Y-12507428D01*
X18729572Y-12507428D02*
X18720048Y-12516952D01*
X18720048Y-12516952D02*
X18701000Y-12526476D01*
X18701000Y-12526476D02*
X18672429Y-12526476D01*
X18853381Y-12526476D02*
X18834334Y-12516952D01*
X18834334Y-12516952D02*
X18824810Y-12497905D01*
X18824810Y-12497905D02*
X18824810Y-12326476D01*
X19005762Y-12516952D02*
X18986715Y-12526476D01*
X18986715Y-12526476D02*
X18948619Y-12526476D01*
X18948619Y-12526476D02*
X18929572Y-12516952D01*
X18929572Y-12516952D02*
X18920048Y-12497905D01*
X18920048Y-12497905D02*
X18920048Y-12421714D01*
X18920048Y-12421714D02*
X18929572Y-12402667D01*
X18929572Y-12402667D02*
X18948619Y-12393143D01*
X18948619Y-12393143D02*
X18986715Y-12393143D01*
X18986715Y-12393143D02*
X19005762Y-12402667D01*
X19005762Y-12402667D02*
X19015286Y-12421714D01*
X19015286Y-12421714D02*
X19015286Y-12440762D01*
X19015286Y-12440762D02*
X18920048Y-12459809D01*
X19091476Y-12516952D02*
X19110524Y-12526476D01*
X19110524Y-12526476D02*
X19148619Y-12526476D01*
X19148619Y-12526476D02*
X19167667Y-12516952D01*
X19167667Y-12516952D02*
X19177191Y-12497905D01*
X19177191Y-12497905D02*
X19177191Y-12488381D01*
X19177191Y-12488381D02*
X19167667Y-12469333D01*
X19167667Y-12469333D02*
X19148619Y-12459809D01*
X19148619Y-12459809D02*
X19120048Y-12459809D01*
X19120048Y-12459809D02*
X19101000Y-12450286D01*
X19101000Y-12450286D02*
X19091476Y-12431238D01*
X19091476Y-12431238D02*
X19091476Y-12421714D01*
X19091476Y-12421714D02*
X19101000Y-12402667D01*
X19101000Y-12402667D02*
X19120048Y-12393143D01*
X19120048Y-12393143D02*
X19148619Y-12393143D01*
X19148619Y-12393143D02*
X19167667Y-12402667D01*
X19243857Y-12602667D02*
X19253381Y-12593143D01*
X19253381Y-12593143D02*
X19272429Y-12564571D01*
X19272429Y-12564571D02*
X19281953Y-12545524D01*
X19281953Y-12545524D02*
X19291476Y-12516952D01*
X19291476Y-12516952D02*
X19301000Y-12469333D01*
X19301000Y-12469333D02*
X19301000Y-12431238D01*
X19301000Y-12431238D02*
X19291476Y-12383619D01*
X19291476Y-12383619D02*
X19281953Y-12355048D01*
X19281953Y-12355048D02*
X19272429Y-12336000D01*
X19272429Y-12336000D02*
X19253381Y-12307428D01*
X19253381Y-12307428D02*
X19243857Y-12297905D01*
M02*
