%TF.GenerationSoftware,KiCad,Pcbnew,(7.0.0)*%
%TF.CreationDate,2026-04-23T22:25:35+02:00*%
%TF.ProjectId,wristwatch_bottom,77726973-7477-4617-9463-685f626f7474,rev?*%
%TF.SameCoordinates,Original*%
%TF.FileFunction,Copper,L2,Bot*%
%TF.FilePolarity,Positive*%
%FSLAX46Y46*%
G04 Gerber Fmt 4.6, Leading zero omitted, Abs format (unit mm)*
G04 Created by KiCad (PCBNEW (7.0.0)) date 2026-04-23 22:25:35*
%MOMM*%
%LPD*%
G01*
G04 APERTURE LIST*
G04 Aperture macros list*
%AMRoundRect*
0 Rectangle with rounded corners*
0 $1 Rounding radius*
0 $2 $3 $4 $5 $6 $7 $8 $9 X,Y pos of 4 corners*
0 Add a 4 corners polygon primitive as box body*
4,1,4,$2,$3,$4,$5,$6,$7,$8,$9,$2,$3,0*
0 Add four circle primitives for the rounded corners*
1,1,$1+$1,$2,$3*
1,1,$1+$1,$4,$5*
1,1,$1+$1,$6,$7*
1,1,$1+$1,$8,$9*
0 Add four rect primitives between the rounded corners*
20,1,$1+$1,$2,$3,$4,$5,0*
20,1,$1+$1,$4,$5,$6,$7,0*
20,1,$1+$1,$6,$7,$8,$9,0*
20,1,$1+$1,$8,$9,$2,$3,0*%
G04 Aperture macros list end*
%TA.AperFunction,SMDPad,CuDef*%
%ADD10R,0.550000X1.600000*%
%TD*%
%TA.AperFunction,SMDPad,CuDef*%
%ADD11R,1.600000X0.550000*%
%TD*%
%TA.AperFunction,ComponentPad*%
%ADD12O,1.600000X1.600000*%
%TD*%
%TA.AperFunction,SMDPad,CuDef*%
%ADD13RoundRect,0.250000X-0.450000X0.350000X-0.450000X-0.350000X0.450000X-0.350000X0.450000X0.350000X0*%
%TD*%
%TA.AperFunction,ViaPad*%
%ADD14C,0.800000*%
%TD*%
%TA.AperFunction,Conductor*%
%ADD15C,0.250000*%
%TD*%
G04 APERTURE END LIST*
D10*
%TO.P,REF\u002A\u002A,1*%
%TO.N,N/C*%
X159649999Y-105679999D03*
%TO.P,REF\u002A\u002A,2*%
X158849999Y-105679999D03*
D11*
%TO.P,REF\u002A\u002A,3*%
X154999999Y-98629999D03*
%TO.P,REF\u002A\u002A,4*%
X154999999Y-99429999D03*
D10*
%TO.P,REF\u002A\u002A,11*%
X157249999Y-105679999D03*
%TO.P,REF\u002A\u002A,12*%
X156449999Y-105679999D03*
D11*
%TO.P,REF\u002A\u002A,13*%
X154999999Y-104229999D03*
D10*
%TO.P,REF\u002A\u002A,A*%
X160449999Y-97179999D03*
%TO.P,REF\u002A\u002A,B*%
X161249999Y-97179999D03*
%TO.P,REF\u002A\u002A,C*%
X162049999Y-97179999D03*
D11*
%TO.P,REF\u002A\u002A,D*%
X163499999Y-98629999D03*
D10*
%TO.P,REF\u002A\u002A,DP*%
X160449999Y-105679999D03*
D11*
%TO.P,REF\u002A\u002A,E*%
X163499999Y-99429999D03*
D10*
%TO.P,REF\u002A\u002A,F*%
X162049999Y-105679999D03*
%TO.P,REF\u002A\u002A,G*%
X161249999Y-105679999D03*
D11*
%TO.P,REF\u002A\u002A,GND*%
X163499999Y-101829999D03*
X163499999Y-100229999D03*
X154999999Y-101029999D03*
D10*
%TO.P,REF\u002A\u002A,NC*%
X158049999Y-105679999D03*
X157249999Y-97179999D03*
X156449999Y-97179999D03*
D11*
X154999999Y-103429999D03*
X154999999Y-102629999D03*
X154999999Y-101829999D03*
X154999999Y-100229999D03*
D10*
%TO.P,REF\u002A\u002A,RST*%
X159649999Y-97179999D03*
%TO.P,REF\u002A\u002A,SCL*%
X158849999Y-97179999D03*
%TO.P,REF\u002A\u002A,SDA*%
X158049999Y-97179999D03*
D11*
%TO.P,REF\u002A\u002A,VCC*%
X163499999Y-102629999D03*
X163499999Y-101029999D03*
%TO.P,REF\u002A\u002A,XTAL*%
X163499999Y-104229999D03*
X163499999Y-103429999D03*
%TD*%
D12*
%TO.P,,BAT+*%
%TO.N,N/C*%
X165699999Y-102439999D03*
%TD*%
%TO.P,,4*%
%TO.N,N/C*%
X156169999Y-107549999D03*
%TD*%
%TO.P,,2*%
%TO.N,N/C*%
X161249999Y-107549999D03*
%TD*%
%TO.P,,C*%
%TO.N,N/C*%
X168819999Y-107519999D03*
%TD*%
%TO.P,,3*%
%TO.N,N/C*%
X158709999Y-107549999D03*
%TD*%
%TO.P,,DP*%
%TO.N,N/C*%
X166279999Y-107519999D03*
%TD*%
%TO.P,,D*%
%TO.N,N/C*%
X153579999Y-107519999D03*
%TD*%
D13*
%TO.P,REF\u002A\u002A,1*%
%TO.N,N/C*%
X147090000Y-98900000D03*
%TO.P,REF\u002A\u002A,2*%
X147090000Y-100900000D03*
%TD*%
D12*
%TO.P,,BAT+*%
%TO.N,N/C*%
X173809999Y-102429999D03*
%TD*%
%TO.P,,11*%
%TO.N,N/C*%
X168899999Y-97299999D03*
%TD*%
%TO.P,,A*%
%TO.N,N/C*%
X145959999Y-107519999D03*
%TD*%
%TO.P,,12*%
%TO.N,N/C*%
X171439999Y-97299999D03*
%TD*%
%TO.P,,B*%
%TO.N,N/C*%
X148499999Y-107519999D03*
%TD*%
%TO.P,,ARD+*%
%TO.N,N/C*%
X173989999Y-99829999D03*
%TD*%
%TO.P,,BAT-*%
%TO.N,N/C*%
X165699999Y-104979999D03*
%TD*%
%TO.P,,1*%
%TO.N,N/C*%
X163699999Y-107549999D03*
%TD*%
%TO.P,,E*%
%TO.N,N/C*%
X171359999Y-107519999D03*
%TD*%
%TO.P,,13*%
%TO.N,N/C*%
X173979999Y-97299999D03*
%TD*%
%TO.P,,VCC*%
%TO.N,N/C*%
X145959999Y-104979999D03*
%TD*%
%TO.P,,BAT-*%
%TO.N,N/C*%
X173809999Y-104969999D03*
%TD*%
%TO.P,,10*%
%TO.N,N/C*%
X168899999Y-99839999D03*
%TD*%
%TO.P,,VCC*%
%TO.N,N/C*%
X148499999Y-104979999D03*
%TD*%
%TO.P,,ARD-*%
%TO.N,N/C*%
X171439999Y-99839999D03*
%TD*%
%TO.P,,F*%
%TO.N,N/C*%
X151039999Y-107519999D03*
%TD*%
%TO.P,,G*%
%TO.N,N/C*%
X173899999Y-107519999D03*
%TD*%
D14*
%TO.N,*%
X172750000Y-95010000D03*
X166560000Y-100390000D03*
X166160000Y-94720000D03*
X162050000Y-99380000D03*
X169760000Y-102750000D03*
X161270000Y-101160000D03*
X171785000Y-105405000D03*
X157100000Y-104310000D03*
X160480000Y-101950000D03*
X153290000Y-101070000D03*
X161770000Y-90800000D03*
X156840000Y-101070000D03*
X159460000Y-103590000D03*
X158480000Y-104230000D03*
X166070000Y-97350000D03*
X154860000Y-105190000D03*
X160660000Y-104150000D03*
X165290000Y-100690000D03*
X170810000Y-104510000D03*
X157950000Y-102730000D03*
X168080000Y-94680000D03*
X164990000Y-97150000D03*
X148420000Y-92040000D03*
X162710000Y-95600000D03*
X163380000Y-97190000D03*
X167610000Y-106260000D03*
X148220000Y-102350000D03*
X163440000Y-105190000D03*
X163250000Y-92310000D03*
X152810000Y-93670000D03*
X159120000Y-95520000D03*
X162040000Y-100480000D03*
X151340000Y-100240000D03*
X171900000Y-102780000D03*
X156840000Y-94790000D03*
X157590000Y-101750000D03*
X152460000Y-101740000D03*
X173350000Y-92150000D03*
X158270000Y-98640000D03*
X158050000Y-95510000D03*
X164890000Y-93430000D03*
X152800000Y-106210000D03*
%TD*%
D15*
%TO.N,*%
X169250000Y-93440000D02*
X169250000Y-94870000D01*
X152800000Y-106210000D02*
X152790000Y-106210000D01*
X166160000Y-95340000D02*
X164990000Y-96510000D01*
X169215000Y-102045000D02*
X171420000Y-99840000D01*
X153290000Y-104740000D02*
X154530000Y-105980000D01*
X171420000Y-99840000D02*
X171440000Y-99840000D01*
X151040000Y-105410000D02*
X151040000Y-107520000D01*
X159030000Y-98640000D02*
X159650000Y-98020000D01*
X155410000Y-107550000D02*
X156170000Y-107550000D01*
X175500000Y-105570000D02*
X174830000Y-106240000D01*
X168900000Y-96600000D02*
X168900000Y-97300000D01*
X157590000Y-101660000D02*
X161250000Y-98000000D01*
X173810000Y-104690000D02*
X173810000Y-104970000D01*
X148230000Y-102360000D02*
X148230000Y-104710000D01*
X157250000Y-104460000D02*
X157250000Y-105680000D01*
X156490000Y-103490000D02*
X155750000Y-104230000D01*
X163770000Y-92310000D02*
X164890000Y-93430000D01*
X169250000Y-94870000D02*
X166770000Y-97350000D01*
X159650000Y-103780000D02*
X159650000Y-105680000D01*
X169215000Y-101845000D02*
X169215000Y-102045000D01*
X147150000Y-93310000D02*
X147150000Y-98840000D01*
X172710000Y-99040000D02*
X172260000Y-98590000D01*
X167420000Y-91610000D02*
X169250000Y-93440000D01*
X162050000Y-99380000D02*
X161990000Y-99380000D01*
X166560000Y-101580000D02*
X165700000Y-102440000D01*
X162040000Y-100480000D02*
X162040000Y-102820000D01*
X152030000Y-93670000D02*
X148430000Y-97270000D01*
X165690000Y-93770000D02*
X167170000Y-93770000D01*
X161410000Y-103780000D02*
X161410000Y-105520000D01*
X154530000Y-105980000D02*
X156150000Y-105980000D01*
X151340000Y-100240000D02*
X151340000Y-102450000D01*
X169055000Y-102205000D02*
X169215000Y-102045000D01*
X152470000Y-101740000D02*
X152460000Y-101740000D01*
X163830000Y-96740000D02*
X163830000Y-95630000D01*
X153780000Y-97410000D02*
X155000000Y-98630000D01*
X148420000Y-92040000D02*
X147150000Y-93310000D01*
X161250000Y-98000000D02*
X161250000Y-97180000D01*
X156840000Y-94790000D02*
X152660000Y-94790000D01*
X172260000Y-98590000D02*
X165290000Y-98590000D01*
X148430000Y-99790000D02*
X147320000Y-100900000D01*
X152790000Y-106210000D02*
X149840000Y-103260000D01*
X163500000Y-98630000D02*
X161600000Y-98630000D01*
X158850000Y-104600000D02*
X158850000Y-105680000D01*
X149250000Y-103620000D02*
X151040000Y-105410000D01*
X162650000Y-103430000D02*
X163500000Y-103430000D01*
X148220000Y-102350000D02*
X148230000Y-102360000D01*
X158270000Y-98640000D02*
X159030000Y-98640000D01*
X156840000Y-101070000D02*
X158450000Y-99460000D01*
X173350000Y-92150000D02*
X168900000Y-96600000D01*
X174560000Y-95010000D02*
X175500000Y-95950000D01*
X145960000Y-104980000D02*
X145460000Y-104480000D01*
X151310000Y-97410000D02*
X153780000Y-97410000D01*
X151010000Y-99450000D02*
X150510000Y-99950000D01*
X174830000Y-106240000D02*
X170100000Y-106240000D01*
X175500000Y-95950000D02*
X175500000Y-105570000D01*
X168495000Y-102765000D02*
X169745000Y-102765000D01*
X159320000Y-102410000D02*
X158240000Y-103490000D01*
X160480000Y-101950000D02*
X160480000Y-102850000D01*
X148850000Y-91610000D02*
X167420000Y-91610000D01*
X165290000Y-98590000D02*
X164450000Y-99430000D01*
X171785000Y-105405000D02*
X169445000Y-105405000D01*
X161410000Y-105520000D02*
X161250000Y-105680000D01*
X168590000Y-106260000D02*
X167610000Y-106260000D01*
X145460000Y-104480000D02*
X145460000Y-93210000D01*
X147150000Y-98840000D02*
X147090000Y-98900000D01*
X163250000Y-92310000D02*
X163770000Y-92310000D01*
X161270000Y-101160000D02*
X161270000Y-102840000D01*
X172750000Y-95010000D02*
X174560000Y-95010000D01*
X162660000Y-104230000D02*
X163500000Y-104230000D01*
X160480000Y-102850000D02*
X161410000Y-103780000D01*
X159650000Y-98020000D02*
X159650000Y-97180000D01*
X154960000Y-101070000D02*
X155000000Y-101030000D01*
X166160000Y-94720000D02*
X166160000Y-95340000D01*
X165290000Y-100690000D02*
X164950000Y-101030000D01*
X163500000Y-100230000D02*
X164470000Y-100230000D01*
X158850000Y-95790000D02*
X159120000Y-95520000D01*
X166770000Y-97350000D02*
X166070000Y-97350000D01*
X164990000Y-96510000D02*
X164990000Y-97150000D01*
X154860000Y-105190000D02*
X154420000Y-105190000D01*
X170810000Y-102430000D02*
X172710000Y-100530000D01*
X158050000Y-95510000D02*
X158050000Y-97180000D01*
X166560000Y-100390000D02*
X166560000Y-101580000D01*
X167170000Y-93770000D02*
X168080000Y-94680000D01*
X148230000Y-104710000D02*
X148500000Y-104980000D01*
X153770000Y-103040000D02*
X152470000Y-101740000D01*
X150510000Y-102650000D02*
X155410000Y-107550000D01*
X170100000Y-106240000D02*
X168820000Y-107520000D01*
X164470000Y-100230000D02*
X165560000Y-99140000D01*
X153770000Y-104540000D02*
X153770000Y-103040000D01*
X172710000Y-100530000D02*
X172710000Y-99040000D01*
X159460000Y-103590000D02*
X159650000Y-103780000D01*
X154980000Y-99450000D02*
X151010000Y-99450000D01*
X148420000Y-92040000D02*
X148850000Y-91610000D01*
X164450000Y-99430000D02*
X163500000Y-99430000D01*
X149840000Y-98880000D02*
X151310000Y-97410000D01*
X163380000Y-97190000D02*
X163830000Y-96740000D01*
X156150000Y-105980000D02*
X156450000Y-105680000D01*
X151340000Y-102450000D02*
X153290000Y-104400000D01*
X153290000Y-104400000D02*
X153290000Y-104740000D01*
X162040000Y-102820000D02*
X162650000Y-103430000D01*
X154420000Y-105190000D02*
X153770000Y-104540000D01*
X158410000Y-102270000D02*
X157950000Y-102730000D01*
X165700000Y-104980000D02*
X166280000Y-104980000D01*
X160450000Y-104360000D02*
X160450000Y-105680000D01*
X160660000Y-104150000D02*
X160450000Y-104360000D01*
X158410000Y-101820000D02*
X158410000Y-102270000D01*
X159010000Y-99460000D02*
X160450000Y-98020000D01*
X148340000Y-90330000D02*
X161300000Y-90330000D01*
X152810000Y-93670000D02*
X152030000Y-93670000D01*
X163440000Y-105190000D02*
X162950000Y-105680000D01*
X150510000Y-102640000D02*
X150510000Y-102650000D01*
X159320000Y-102050000D02*
X159320000Y-102410000D01*
X147320000Y-100900000D02*
X147090000Y-100900000D01*
X155950000Y-107550000D02*
X156170000Y-107550000D01*
X160450000Y-98020000D02*
X160450000Y-97180000D01*
X148430000Y-97270000D02*
X148430000Y-99790000D01*
X164950000Y-101030000D02*
X163500000Y-101030000D01*
X161600000Y-98630000D02*
X158410000Y-101820000D01*
X157100000Y-104310000D02*
X157250000Y-104460000D01*
X161270000Y-102840000D02*
X162660000Y-104230000D01*
X165560000Y-99140000D02*
X166510000Y-99140000D01*
X162710000Y-95600000D02*
X162050000Y-96260000D01*
X145460000Y-93210000D02*
X148340000Y-90330000D01*
X149250000Y-98200000D02*
X149250000Y-103620000D01*
X152660000Y-94790000D02*
X149250000Y-98200000D01*
X158240000Y-103490000D02*
X156490000Y-103490000D01*
X162050000Y-96260000D02*
X162050000Y-97180000D01*
X161300000Y-90330000D02*
X161770000Y-90800000D01*
X161990000Y-99380000D02*
X159320000Y-102050000D01*
X163830000Y-95630000D02*
X165690000Y-93770000D01*
X158850000Y-97180000D02*
X158850000Y-95790000D01*
X169745000Y-102765000D02*
X169760000Y-102750000D01*
X158450000Y-99460000D02*
X159010000Y-99460000D01*
X166280000Y-104980000D02*
X168495000Y-102765000D01*
X149840000Y-103260000D02*
X149840000Y-98880000D01*
X153290000Y-101070000D02*
X154960000Y-101070000D01*
X171900000Y-102780000D02*
X173810000Y-104690000D01*
X155750000Y-104230000D02*
X155000000Y-104230000D01*
X158480000Y-104230000D02*
X158850000Y-104600000D01*
X157590000Y-101750000D02*
X157590000Y-101660000D01*
X162950000Y-105680000D02*
X162050000Y-105680000D01*
X170810000Y-104510000D02*
X170810000Y-102430000D01*
X166510000Y-99140000D02*
X169215000Y-101845000D01*
X155000000Y-99430000D02*
X154980000Y-99450000D01*
X168495000Y-102765000D02*
X169055000Y-102205000D01*
X169445000Y-105405000D02*
X168590000Y-106260000D01*
X150510000Y-99950000D02*
X150510000Y-102640000D01*
%TD*%
M02*
