%TF.GenerationSoftware,KiCad,Pcbnew,(7.0.0)*%
%TF.CreationDate,2026-04-23T22:25:35+02:00*%
%TF.ProjectId,wristwatch_bottom,77726973-7477-4617-9463-685f626f7474,rev?*%
%TF.SameCoordinates,Original*%
%TF.FileFunction,Copper,L1,Top*%
%TF.FilePolarity,Positive*%
%FSLAX46Y46*%
G04 Gerber Fmt 4.6, Leading zero omitted, Abs format (unit mm)*
G04 Created by KiCad (PCBNEW (7.0.0)) date 2026-04-23 22:25:35*
%MOMM*%
%LPD*%
G01*
G04 APERTURE LIST*
G04 Aperture macros list*
%AMRoundRect*
0 Rectangle with rounded corners*
0 $1 Rounding radius*
0 $2 $3 $4 $5 $6 $7 $8 $9 X,Y pos of 4 corners*
0 Add a 4 corners polygon primitive as box body*
4,1,4,$2,$3,$4,$5,$6,$7,$8,$9,$2,$3,0*
0 Add four circle primitives for the rounded corners*
1,1,$1+$1,$2,$3*
1,1,$1+$1,$4,$5*
1,1,$1+$1,$6,$7*
1,1,$1+$1,$8,$9*
0 Add four rect primitives between the rounded corners*
20,1,$1+$1,$2,$3,$4,$5,0*
20,1,$1+$1,$4,$5,$6,$7,0*
20,1,$1+$1,$6,$7,$8,$9,0*
20,1,$1+$1,$8,$9,$2,$3,0*%
G04 Aperture macros list end*
%TA.AperFunction,ComponentPad*%
%ADD10O,1.600000X1.600000*%
%TD*%
%TA.AperFunction,SMDPad,CuDef*%
%ADD11RoundRect,0.250000X0.450000X-0.350000X0.450000X0.350000X-0.450000X0.350000X-0.450000X-0.350000X0*%
%TD*%
%TA.AperFunction,SMDPad,CuDef*%
%ADD12RoundRect,0.150000X-0.875000X-0.150000X0.875000X-0.150000X0.875000X0.150000X-0.875000X0.150000X0*%
%TD*%
%TA.AperFunction,ViaPad*%
%ADD13C,0.800000*%
%TD*%
%TA.AperFunction,Conductor*%
%ADD14C,0.250000*%
%TD*%
G04 APERTURE END LIST*
D10*
%TO.P,,BAT+*%
%TO.N,N/C*%
X165699999Y-102439999D03*
%TD*%
%TO.P,,4*%
%TO.N,N/C*%
X156169999Y-107549999D03*
%TD*%
%TO.P,,2*%
%TO.N,N/C*%
X161249999Y-107549999D03*
%TD*%
%TO.P,,C*%
%TO.N,N/C*%
X168819999Y-107519999D03*
%TD*%
D11*
%TO.P,REF\u002A\u002A,1*%
%TO.N,N/C*%
X160690000Y-94150000D03*
%TO.P,REF\u002A\u002A,2*%
X160690000Y-92150000D03*
%TD*%
%TO.P,REF\u002A\u002A,1*%
%TO.N,N/C*%
X169590000Y-94620000D03*
%TO.P,REF\u002A\u002A,2*%
X169590000Y-92620000D03*
%TD*%
D10*
%TO.P,,3*%
%TO.N,N/C*%
X158709999Y-107549999D03*
%TD*%
%TO.P,,DP*%
%TO.N,N/C*%
X166279999Y-107519999D03*
%TD*%
%TO.P,,D*%
%TO.N,N/C*%
X153579999Y-107519999D03*
%TD*%
%TO.P,,BAT+*%
%TO.N,N/C*%
X173809999Y-102429999D03*
%TD*%
%TO.P,,11*%
%TO.N,N/C*%
X168899999Y-97299999D03*
%TD*%
%TO.P,,A*%
%TO.N,N/C*%
X145959999Y-107519999D03*
%TD*%
%TO.P,,12*%
%TO.N,N/C*%
X171439999Y-97299999D03*
%TD*%
D11*
%TO.P,REF\u002A\u002A,1*%
%TO.N,N/C*%
X158230000Y-94150000D03*
%TO.P,REF\u002A\u002A,2*%
X158230000Y-92150000D03*
%TD*%
D10*
%TO.P,,B*%
%TO.N,N/C*%
X148499999Y-107519999D03*
%TD*%
%TO.P,,ARD+*%
%TO.N,N/C*%
X173989999Y-99829999D03*
%TD*%
%TO.P,,BAT-*%
%TO.N,N/C*%
X165699999Y-104979999D03*
%TD*%
%TO.P,,1*%
%TO.N,N/C*%
X163699999Y-107549999D03*
%TD*%
%TO.P,,E*%
%TO.N,N/C*%
X171359999Y-107519999D03*
%TD*%
%TO.P,,13*%
%TO.N,N/C*%
X173979999Y-97299999D03*
%TD*%
%TO.P,,VCC*%
%TO.N,N/C*%
X145959999Y-104979999D03*
%TD*%
%TO.P,,BAT-*%
%TO.N,N/C*%
X173809999Y-104969999D03*
%TD*%
%TO.P,,10*%
%TO.N,N/C*%
X168899999Y-99839999D03*
%TD*%
%TO.P,,VCC*%
%TO.N,N/C*%
X148499999Y-104979999D03*
%TD*%
D12*
%TO.P,REF\u002A\u002A,GND*%
%TO.N,N/C*%
X155100000Y-96655000D03*
%TO.P,REF\u002A\u002A,NC*%
X145800000Y-92845000D03*
X145800000Y-95385000D03*
X145800000Y-96655000D03*
X145800000Y-97925000D03*
X145800000Y-99195000D03*
X145800000Y-100465000D03*
X145800000Y-101735000D03*
X155100000Y-95385000D03*
X155100000Y-97925000D03*
X155100000Y-99195000D03*
X155100000Y-100465000D03*
X155100000Y-101735000D03*
%TO.P,REF\u002A\u002A,SCL*%
X155100000Y-92845000D03*
%TO.P,REF\u002A\u002A,SDA*%
X155100000Y-94115000D03*
%TO.P,REF\u002A\u002A,VCC*%
X145800000Y-94115000D03*
%TD*%
D10*
%TO.P,,ARD-*%
%TO.N,N/C*%
X171439999Y-99839999D03*
%TD*%
%TO.P,,F*%
%TO.N,N/C*%
X151039999Y-107519999D03*
%TD*%
%TO.P,,G*%
%TO.N,N/C*%
X173899999Y-107519999D03*
%TD*%
D13*
%TO.N,*%
X172750000Y-95010000D03*
X166560000Y-100390000D03*
X166160000Y-94720000D03*
X162050000Y-99380000D03*
X169760000Y-102750000D03*
X161270000Y-101160000D03*
X171785000Y-105405000D03*
X157100000Y-104310000D03*
X160480000Y-101950000D03*
X153290000Y-101070000D03*
X161770000Y-90800000D03*
X156840000Y-101070000D03*
X159460000Y-103590000D03*
X158480000Y-104230000D03*
X166070000Y-97350000D03*
X154860000Y-105190000D03*
X160660000Y-104150000D03*
X165290000Y-100690000D03*
X170810000Y-104510000D03*
X157950000Y-102730000D03*
X168080000Y-94680000D03*
X164990000Y-97150000D03*
X148420000Y-92040000D03*
X162710000Y-95600000D03*
X163380000Y-97190000D03*
X167610000Y-106260000D03*
X148220000Y-102350000D03*
X163440000Y-105190000D03*
X163250000Y-92310000D03*
X152810000Y-93670000D03*
X159120000Y-95520000D03*
X162040000Y-100480000D03*
X151340000Y-100240000D03*
X171900000Y-102780000D03*
X156840000Y-94790000D03*
X157590000Y-101750000D03*
X152460000Y-101740000D03*
X173350000Y-92150000D03*
X158270000Y-98640000D03*
X158050000Y-95510000D03*
X164890000Y-93430000D03*
X152800000Y-106210000D03*
%TD*%
D14*
%TO.N,*%
X153110000Y-103360000D02*
X148950000Y-107520000D01*
X164990000Y-100390000D02*
X164990000Y-97150000D01*
X160390000Y-106170000D02*
X161670000Y-106170000D01*
X164700000Y-92140000D02*
X169110000Y-92140000D01*
X156810000Y-90510000D02*
X159050000Y-90510000D01*
X155210000Y-89910000D02*
X169390000Y-89910000D01*
X163250000Y-92280000D02*
X161770000Y-90800000D01*
X155100000Y-105430000D02*
X156660000Y-105430000D01*
X160010000Y-102980000D02*
X156910000Y-99880000D01*
X161180000Y-99620000D02*
X162040000Y-100480000D01*
X155960000Y-104400000D02*
X152980000Y-104400000D01*
X169760000Y-102750000D02*
X171870000Y-102750000D01*
X164070000Y-106070000D02*
X165520000Y-107520000D01*
X161230000Y-107530000D02*
X161250000Y-107550000D01*
X152810000Y-96110000D02*
X152810000Y-93670000D01*
X157590000Y-101750000D02*
X157590000Y-101950000D01*
X160490000Y-94150000D02*
X159120000Y-95520000D01*
X159460000Y-103590000D02*
X159460000Y-105240000D01*
X161270000Y-101160000D02*
X159110000Y-101160000D01*
X163440000Y-105190000D02*
X161230000Y-102980000D01*
X161670000Y-106170000D02*
X163050000Y-107550000D01*
X157500000Y-97570000D02*
X158680000Y-96390000D01*
X159180000Y-98640000D02*
X161450000Y-96370000D01*
X164820000Y-103710000D02*
X174690000Y-103710000D01*
X167390000Y-96930000D02*
X167390000Y-98330000D01*
X154740000Y-89140000D02*
X150480000Y-93400000D01*
X152700000Y-102580000D02*
X151890000Y-103390000D01*
X161332000Y-107468000D02*
X161250000Y-107550000D01*
X155100000Y-92845000D02*
X155100000Y-92220000D01*
X153290000Y-101070000D02*
X152700000Y-100480000D01*
X158230000Y-95330000D02*
X158230000Y-94150000D01*
X165750000Y-101150000D02*
X173360000Y-101150000D01*
X173350000Y-91270000D02*
X171220000Y-89140000D01*
X146345000Y-94115000D02*
X145800000Y-94115000D01*
X152920000Y-107520000D02*
X153580000Y-107520000D01*
X171360000Y-107310000D02*
X171360000Y-107520000D01*
X157630000Y-102730000D02*
X155960000Y-104400000D01*
X148950000Y-107520000D02*
X148500000Y-107520000D01*
X156910000Y-99880000D02*
X156910000Y-94860000D01*
X165700000Y-102440000D02*
X166400000Y-101740000D01*
X164260000Y-104550000D02*
X161660000Y-101950000D01*
X174690000Y-103710000D02*
X175510000Y-102890000D01*
X156840000Y-101070000D02*
X156840000Y-101930000D01*
X169590000Y-94620000D02*
X168140000Y-94620000D01*
X172000000Y-97300000D02*
X171440000Y-97300000D01*
X150480000Y-100480000D02*
X151740000Y-101740000D01*
X165520000Y-107520000D02*
X166280000Y-107520000D01*
X161770000Y-98230000D02*
X161180000Y-98820000D01*
X163380000Y-97190000D02*
X162340000Y-98230000D01*
X158870000Y-105940000D02*
X160480000Y-107550000D01*
X157370000Y-106210000D02*
X158710000Y-107550000D01*
X172750000Y-95010000D02*
X172450000Y-95010000D01*
X151340000Y-93780000D02*
X155210000Y-89910000D01*
X171870000Y-102750000D02*
X171900000Y-102780000D01*
X173990000Y-100520000D02*
X173990000Y-99830000D01*
X148420000Y-92040000D02*
X146345000Y-94115000D01*
X171220000Y-89140000D02*
X154740000Y-89140000D01*
X160480000Y-107550000D02*
X161250000Y-107550000D01*
X166560000Y-100390000D02*
X166560000Y-97840000D01*
X171680000Y-95780000D02*
X162890000Y-95780000D01*
X158870000Y-104620000D02*
X158870000Y-105940000D01*
X161180000Y-98820000D02*
X161180000Y-99620000D01*
X173850000Y-94370000D02*
X173850000Y-95450000D01*
X169110000Y-92140000D02*
X169590000Y-92620000D01*
X162340000Y-98230000D02*
X161770000Y-98230000D01*
X151890000Y-103390000D02*
X147920000Y-103390000D01*
X170810000Y-104510000D02*
X170810000Y-106760000D01*
X153355000Y-96655000D02*
X152810000Y-96110000D01*
X161450000Y-96370000D02*
X166830000Y-96370000D01*
X172450000Y-95010000D02*
X171680000Y-95780000D01*
X171785000Y-105405000D02*
X173900000Y-107520000D01*
X158480000Y-104230000D02*
X158870000Y-104620000D01*
X147230000Y-104080000D02*
X147230000Y-106250000D01*
X159050000Y-90510000D02*
X160690000Y-92150000D01*
X160450000Y-96390000D02*
X164700000Y-92140000D01*
X163350000Y-102240000D02*
X164820000Y-103710000D01*
X157590000Y-101950000D02*
X156180000Y-103360000D01*
X151810000Y-106410000D02*
X152920000Y-107520000D01*
X169390000Y-89910000D02*
X173850000Y-94370000D01*
X173850000Y-95450000D02*
X172000000Y-97300000D01*
X156910000Y-94860000D02*
X156840000Y-94790000D01*
X156265000Y-94115000D02*
X158230000Y-92150000D01*
X159110000Y-101160000D02*
X157500000Y-99550000D01*
X157100000Y-104990000D02*
X157100000Y-104310000D01*
X167390000Y-98330000D02*
X168900000Y-99840000D01*
X155100000Y-92220000D02*
X156810000Y-90510000D01*
X165130000Y-106260000D02*
X164260000Y-105390000D01*
X148620000Y-101950000D02*
X148620000Y-92240000D01*
X153355000Y-96655000D02*
X155100000Y-96655000D01*
X151340000Y-100240000D02*
X151340000Y-93780000D01*
X163050000Y-107550000D02*
X163700000Y-107550000D01*
X164260000Y-105390000D02*
X164260000Y-104550000D01*
X152980000Y-104400000D02*
X151810000Y-105570000D01*
X156660000Y-105430000D02*
X157100000Y-104990000D01*
X147230000Y-106250000D02*
X145960000Y-107520000D01*
X159460000Y-105240000D02*
X160390000Y-106170000D01*
X148620000Y-92240000D02*
X148420000Y-92040000D01*
X154860000Y-105190000D02*
X155100000Y-105430000D01*
X160690000Y-94150000D02*
X160490000Y-94150000D01*
X164890000Y-93450000D02*
X166160000Y-94720000D01*
X151740000Y-101740000D02*
X152460000Y-101740000D01*
X170810000Y-106760000D02*
X171360000Y-107310000D01*
X158680000Y-96390000D02*
X160450000Y-96390000D01*
X165290000Y-100690000D02*
X164990000Y-100390000D01*
X152700000Y-100480000D02*
X152700000Y-97310000D01*
X175510000Y-102890000D02*
X175510000Y-98830000D01*
X152800000Y-106210000D02*
X157370000Y-106210000D01*
X161660000Y-101950000D02*
X160480000Y-101950000D01*
X162580000Y-106070000D02*
X164070000Y-106070000D01*
X151810000Y-105570000D02*
X151810000Y-106410000D01*
X163250000Y-92310000D02*
X163250000Y-92280000D01*
X150480000Y-93400000D02*
X150480000Y-100480000D01*
X165290000Y-100690000D02*
X165750000Y-101150000D01*
X164890000Y-93430000D02*
X164890000Y-93450000D01*
X162890000Y-95780000D02*
X162710000Y-95600000D01*
X160660000Y-104150000D02*
X162580000Y-106070000D01*
X175510000Y-98830000D02*
X173980000Y-97300000D01*
X166400000Y-101740000D02*
X173120000Y-101740000D01*
X173360000Y-101150000D02*
X173990000Y-100520000D01*
X173350000Y-92150000D02*
X173350000Y-91270000D01*
X163350000Y-100680000D02*
X163350000Y-102240000D01*
X157950000Y-102730000D02*
X157630000Y-102730000D01*
X157500000Y-99550000D02*
X157500000Y-97570000D01*
X148220000Y-102350000D02*
X148620000Y-101950000D01*
X158050000Y-95510000D02*
X158230000Y-95330000D01*
X155100000Y-94115000D02*
X156265000Y-94115000D01*
X152700000Y-97310000D02*
X153355000Y-96655000D01*
X156180000Y-103360000D02*
X153110000Y-103360000D01*
X168140000Y-94620000D02*
X168080000Y-94680000D01*
X167610000Y-106260000D02*
X165130000Y-106260000D01*
X156190000Y-102580000D02*
X152700000Y-102580000D01*
X166830000Y-96370000D02*
X167390000Y-96930000D01*
X161230000Y-102980000D02*
X160010000Y-102980000D01*
X166560000Y-97840000D02*
X166070000Y-97350000D01*
X156840000Y-101930000D02*
X156190000Y-102580000D01*
X158270000Y-98640000D02*
X159180000Y-98640000D01*
X147920000Y-103390000D02*
X147230000Y-104080000D01*
X173120000Y-101740000D02*
X173810000Y-102430000D01*
X162050000Y-99380000D02*
X163350000Y-100680000D01*
%TD*%
M02*
