M48
; DRILL file {KiCad (7.0.0)} date Thu Apr 23 22:25:32 2026
; FORMAT={-:-/ absolute / inch / decimal}
; #@! TF.CreationDate,2026-04-23T22:25:32+02:00
; #@! TF.GenerationSoftware,Kicad,Pcbnew,(7.0.0)
; #@! TF.FileFunction,Plated,1,2,PTH
FMAT,2
INCH
; #@! TA.AperFunction,Plated,PTH,ViaDrill
T1C0.0157
; #@! TA.AperFunction,Plated,PTH,ComponentDrill
T2C0.0394
%
G90
G05
T1
X5.8354Y-4.0295
X5.8433Y-3.6236
X5.9583Y-3.9465
X6.0024Y-4.0055
X6.0157Y-4.1815
X6.0161Y-3.6878
X6.035Y-3.9791
X6.0969Y-4.1413
X6.1748Y-3.7319
X6.1748Y-3.9791
X6.185Y-4.1067
X6.2043Y-4.0059
X6.2185Y-4.0445
X6.2224Y-3.7602
X6.2311Y-3.8835
X6.2394Y-4.1035
X6.2646Y-3.7606
X6.278Y-4.0783
X6.3181Y-4.0138
X6.3252Y-4.1004
X6.3492Y-3.9827
X6.3689Y-3.5748
X6.3795Y-3.9559
X6.3799Y-3.9126
X6.4059Y-3.7638
X6.4272Y-3.6343
X6.4323Y-3.8264
X6.4346Y-4.1413
X6.4917Y-3.6783
X6.4957Y-3.8248
X6.5075Y-3.9642
X6.5382Y-3.8327
X6.5417Y-3.7291
X6.5575Y-3.9524
X6.5988Y-4.1835
X6.6173Y-3.7276
X6.6835Y-4.0453
X6.7248Y-4.1146
X6.7632Y-4.1498
X6.7677Y-4.0465
X6.8012Y-3.7406
X6.8248Y-3.628
T2
X5.7465Y-4.1331
X5.7465Y-4.2331
X5.8465Y-4.1331
X5.8465Y-4.2331
X5.9465Y-4.2331
X6.0465Y-4.2331
X6.1484Y-4.2343
X6.2484Y-4.2343
X6.3484Y-4.2343
X6.4449Y-4.2343
X6.5236Y-4.0331
X6.5236Y-4.1331
X6.5465Y-4.2331
X6.6465Y-4.2331
X6.6496Y-3.8307
X6.6496Y-3.9307
X6.7465Y-4.2331
X6.7496Y-3.8307
X6.7496Y-3.9307
X6.8429Y-4.0327
X6.8429Y-4.1327
X6.8465Y-4.2331
X6.8496Y-3.8307
X6.85Y-3.9303
T0
M30
