%TF.GenerationSoftware,KiCad,Pcbnew,(7.0.0)*%
%TF.CreationDate,2026-04-23T22:25:35+02:00*%
%TF.ProjectId,wristwatch_bottom,77726973-7477-4617-9463-685f626f7474,rev?*%
%TF.SameCoordinates,Original*%
%TF.FileFunction,Legend,Top*%
%TF.FilePolarity,Positive*%
%FSLAX46Y46*%
G04 Gerber Fmt 4.6, Leading zero omitted, Abs format (unit mm)*
G04 Created by KiCad (PCBNEW (7.0.0)) date 2026-04-23 22:25:35*
%MOMM*%
%LPD*%
G01*
G04 APERTURE LIST*
%ADD10C,0.125000*%
%ADD11C,0.150000*%
%ADD12C,0.120000*%
G04 APERTURE END LIST*
D10*
X157908809Y-93344761D02*
X158146904Y-93178095D01*
X157908809Y-93059047D02*
X158408809Y-93059047D01*
X158408809Y-93059047D02*
X158408809Y-93249523D01*
X158408809Y-93249523D02*
X158385000Y-93297142D01*
X158385000Y-93297142D02*
X158361190Y-93320952D01*
X158361190Y-93320952D02*
X158313571Y-93344761D01*
X158313571Y-93344761D02*
X158242142Y-93344761D01*
X158242142Y-93344761D02*
X158194523Y-93320952D01*
X158194523Y-93320952D02*
X158170714Y-93297142D01*
X158170714Y-93297142D02*
X158146904Y-93249523D01*
X158146904Y-93249523D02*
X158146904Y-93059047D01*
X160458809Y-93284761D02*
X160696904Y-93118095D01*
X160458809Y-92999047D02*
X160958809Y-92999047D01*
X160958809Y-92999047D02*
X160958809Y-93189523D01*
X160958809Y-93189523D02*
X160935000Y-93237142D01*
X160935000Y-93237142D02*
X160911190Y-93260952D01*
X160911190Y-93260952D02*
X160863571Y-93284761D01*
X160863571Y-93284761D02*
X160792142Y-93284761D01*
X160792142Y-93284761D02*
X160744523Y-93260952D01*
X160744523Y-93260952D02*
X160720714Y-93237142D01*
X160720714Y-93237142D02*
X160696904Y-93189523D01*
X160696904Y-93189523D02*
X160696904Y-92999047D01*
X171828809Y-92941428D02*
X171328809Y-93274761D01*
X171828809Y-93274761D02*
X171328809Y-92941428D01*
X171828809Y-93393809D02*
X171828809Y-93679523D01*
X171328809Y-93536666D02*
X171828809Y-93536666D01*
X171471666Y-93822380D02*
X171471666Y-94060475D01*
X171328809Y-93774761D02*
X171828809Y-93941427D01*
X171828809Y-93941427D02*
X171328809Y-94108094D01*
X171328809Y-94512855D02*
X171328809Y-94274760D01*
X171328809Y-94274760D02*
X171828809Y-94274760D01*
D11*
%TO.C,*%
D12*
%TO.C,REF\u002A\u002A*%
X159955000Y-93377064D02*
X159955000Y-92922936D01*
X161425000Y-93377064D02*
X161425000Y-92922936D01*
X168855000Y-93847064D02*
X168855000Y-93392936D01*
X170325000Y-93847064D02*
X170325000Y-93392936D01*
X157495000Y-93377064D02*
X157495000Y-92922936D01*
X158965000Y-93377064D02*
X158965000Y-92922936D01*
X146590000Y-92030000D02*
X146590000Y-92285000D01*
X146590000Y-92285000D02*
X144775000Y-92285000D01*
X146590000Y-102550000D02*
X146590000Y-102295000D01*
X150450000Y-92030000D02*
X146590000Y-92030000D01*
X150450000Y-92030000D02*
X154310000Y-92030000D01*
X150450000Y-102550000D02*
X146590000Y-102550000D01*
X150450000Y-102550000D02*
X154310000Y-102550000D01*
X154310000Y-92030000D02*
X154310000Y-92285000D01*
X154310000Y-102550000D02*
X154310000Y-102295000D01*
%TD*%
M02*
